<svg width="129" height="123" viewBox="0 0 129 123" fill="none" xmlns="http://www.w3.org/2000/svg">
<path d="M26.5557 39.6276C22.6505 39.6276 19.2552 41.8561 17.695 45.4433C16.1445 49.0076 16.8235 52.9836 19.466 55.8191C19.5992 55.9621 19.7355 56.1031 19.8745 56.2423C20.3627 56.7306 21.0025 56.9746 21.6422 56.9746C22.282 56.9746 22.922 56.7306 23.41 56.2423C24.3862 55.2661 24.3862 53.6831 23.41 52.7066C23.3125 52.6093 23.2172 52.5108 23.1237 52.4103C21.84 51.0328 21.5245 49.1738 22.2795 47.4376C23.045 45.6778 24.6435 44.6274 26.5552 44.6274C27.936 44.6274 29.0552 43.5081 29.0552 42.1274C29.0557 40.7469 27.9365 39.6276 26.5557 39.6276Z" fill="#007EF3" stroke="#007EF3"/>
<path d="M79.7118 44.6276C81.6236 44.6276 83.2221 45.6781 83.9876 47.4379C84.7428 49.1741 84.4273 51.0331 83.1421 52.4118C83.0491 52.5116 82.9536 52.6103 82.8563 52.7076C81.8806 53.6843 81.8813 55.2673 82.8581 56.2431C83.3463 56.7306 83.9856 56.9743 84.6248 56.9743C85.2651 56.9743 85.9053 56.7298 86.3936 56.2411C86.5326 56.1018 86.6691 55.9608 86.8008 55.8193C89.4438 52.9833 90.1228 49.0076 88.5723 45.4434C87.0121 41.8559 83.6168 39.6274 79.7116 39.6274C78.3308 39.6274 77.2116 40.7466 77.2116 42.1274C77.2118 43.5084 78.3311 44.6276 79.7118 44.6276Z" fill="#007EF3" stroke="#007EF3"/>
<path d="M36.9242 34.0787C37.0874 34.0787 37.2499 34.0759 37.4124 34.0702C40.7174 33.9539 43.5249 31.9654 44.7394 28.8807C45.9614 25.7774 45.2579 22.3869 42.9034 20.0324C41.9272 19.0562 40.3442 19.0562 39.3677 20.0324C38.3914 21.0087 38.3914 22.5917 39.3677 23.5682C40.3067 24.5069 40.5754 25.8084 40.0869 27.0489C39.6059 28.2707 38.5402 29.0274 37.2369 29.0732C37.1332 29.0769 37.0287 29.0787 36.9239 29.0787C35.5432 29.0787 34.4239 30.1979 34.4239 31.5787C34.4242 32.9594 35.5434 34.0787 36.9242 34.0787Z" fill="#007EF3" stroke="#007EF3"/>
<path d="M68.8556 34.7812C69.0166 34.7867 69.1786 34.7897 69.3409 34.7897H69.3431C70.7229 34.7897 71.8419 33.6719 71.8431 32.2919C71.8444 30.9112 70.7261 29.7909 69.3454 29.7897C69.2399 29.7897 69.1346 29.7877 69.0306 29.7842C67.7269 29.7382 66.6611 28.9814 66.1801 27.7597C65.6916 26.5189 65.9606 25.2177 66.8994 24.2789C67.8756 23.3027 67.8756 21.7197 66.8994 20.7432C65.9231 19.7669 64.3401 19.7669 63.3636 20.7432C61.0091 23.0977 60.3056 26.4882 61.5276 29.5914C62.7426 32.6762 65.5501 34.6647 68.8556 34.7812Z" fill="#007EF3" stroke="#007EF3"/>
<path d="M39.3677 62.5448C38.3914 63.5211 38.3914 65.1041 39.3677 66.0806C40.3067 67.0193 40.5754 68.3206 40.0869 69.5613C39.6059 70.7831 38.5402 71.5396 37.2347 71.5856C37.1317 71.5893 37.0279 71.5911 36.9239 71.5911C35.5432 71.5911 34.4239 72.7103 34.4239 74.0911C34.4239 75.4718 35.5432 76.5911 36.9239 76.5911C37.0879 76.5911 37.2512 76.5883 37.4122 76.5823C40.7169 76.4661 43.5247 74.4778 44.7392 71.3931C45.9612 68.2896 45.2577 64.8993 42.9032 62.5446C41.9269 61.5686 40.3439 61.5686 39.3677 62.5448Z" fill="#007EF3" stroke="#007EF3"/>
<path fill-rule="evenodd" clip-rule="evenodd" d="M104.025 58.3774C108.049 47.1424 104.952 34.4872 96.1486 26.3659C96.5916 24.9725 96.8151 23.521 96.8151 22.0302C96.8151 14.1235 90.3823 7.69074 82.4756 7.69074C80.8776 7.69074 79.3153 7.95048 77.8211 8.46373C75.4256 3.63499 70.4681 0.499999 64.9731 0.499999C60.0616 0.499999 55.7189 2.98199 53.1337 6.75774C50.5482 2.98199 46.2054 0.499999 41.2939 0.499999C35.9929 0.499999 31.1892 3.42024 28.7067 7.96373C27.7902 7.78199 26.8547 7.69074 25.908 7.69074C18.0012 7.69074 11.5685 14.1235 11.5685 22.0302C11.5685 22.9915 11.6635 23.9445 11.8517 24.878C11.7537 24.9597 11.644 25.05 11.5212 25.15C4.51949 30.8492 0.502251 39.2847 0.499999 48.2934C0.498001 56.6879 3.98124 64.5854 10.1185 70.2369C9.67573 71.6301 9.45223 73.0814 9.45223 74.5716C9.45223 82.4783 15.885 88.9111 23.792 88.9111C25.39 88.9111 26.9522 88.6513 28.4464 88.1381C30.8419 92.9668 35.7992 96.1018 41.2942 96.1018C46.2057 96.1018 50.5484 93.6198 53.1339 89.8441C55.6514 93.5203 59.8349 95.9703 64.5871 96.0966C67.4626 111.062 80.5668 122.398 96.2503 122.398C114.033 122.398 128.5 107.824 128.5 89.9103C128.5 74.6964 118.064 61.8911 104.025 58.3774ZM55.6336 81.7626V61.7211C55.6336 60.3404 54.5144 59.2211 53.1337 59.2211C51.7529 59.2211 50.6337 60.3404 50.6337 61.7211V81.7626C50.6337 86.9126 46.4439 91.1021 41.2939 91.1021C37.3119 91.1021 33.7632 88.5751 32.4639 84.8141C32.1442 83.8883 31.3132 83.2348 30.3384 83.1418C29.9144 83.1013 29.7819 83.0911 29.6139 83.0891H29.5742C29.1667 83.0891 28.7607 83.0778 28.3669 83.0561C27.9989 83.0353 27.6317 83.0966 27.2904 83.2343C26.1795 83.6836 25.0025 83.9113 23.7915 83.9113C18.6415 83.9113 14.4517 79.7216 14.4517 74.5719C14.4517 73.1729 14.753 71.8284 15.3472 70.5756C15.8405 69.5356 15.56 68.2934 14.6675 67.5661C8.83973 62.8176 5.49824 55.7936 5.49999 48.2949C5.50174 40.7962 8.84699 33.7737 14.6777 29.0279C16.1762 27.8079 16.6632 27.2897 16.943 26.617C17.171 26.069 17.1962 25.4575 17.0145 24.8922C16.7185 23.9712 16.5685 23.0085 16.5685 22.0305C16.5685 16.8805 20.7582 12.691 25.908 12.691C27.0495 12.691 28.1637 12.894 29.2194 13.2945C29.8509 13.534 30.5527 13.5075 31.1644 13.2217C31.7764 12.9357 32.2464 12.4145 32.4679 11.7765C33.7707 8.02248 37.3174 5.50024 41.2939 5.50024C46.4439 5.50024 50.6337 9.68998 50.6337 14.8397V39.1182C50.6337 40.4989 51.7529 41.6182 53.1337 41.6182C54.5144 41.6182 55.6336 40.4989 55.6336 39.1182V14.8397C55.6336 9.68973 59.8234 5.50024 64.9731 5.50024C68.9551 5.50024 72.5036 8.02724 73.8034 11.7882C74.1231 12.714 74.9539 13.3675 75.9286 13.4605C76.3459 13.5005 76.4901 13.5132 76.6456 13.5132H76.6929C77.1009 13.5132 77.5068 13.5242 77.8994 13.5465C78.2678 13.5665 78.6349 13.506 78.9766 13.368C80.0873 12.9187 81.2646 12.691 82.4756 12.691C87.6256 12.691 91.8151 16.8807 91.8151 22.0305C91.8151 23.4297 91.5138 24.7742 90.9196 26.0265C90.4263 27.0667 90.7068 28.3089 91.5993 29.0362C100.047 35.9182 103.008 47.5087 98.9961 57.5399C98.0908 57.4626 97.1748 57.4231 96.2501 57.4231C84.9058 57.4231 74.9109 63.3544 69.1604 72.3004C69.1169 72.2994 69.0736 72.2984 69.0306 72.2969C67.7269 72.2509 66.6611 71.4941 66.1801 70.2724C65.6916 69.0316 65.9606 67.7304 66.8994 66.7916C67.8756 65.8154 67.8756 64.2324 66.8994 63.2559C65.9231 62.2796 64.3401 62.2796 63.3636 63.2559C61.0091 65.6104 60.3056 69.0009 61.5276 72.1041C62.4654 74.4859 64.3529 76.2141 66.6861 76.9316C64.9589 80.9089 64.0001 85.2993 64.0001 89.9108C64.0001 90.2933 64.0069 90.6743 64.0199 91.0538C59.3164 90.5751 55.6336 86.5908 55.6336 81.7626ZM69.0004 89.9108C69.0004 105.068 81.2246 117.399 96.2501 117.399C111.276 117.399 123.5 105.068 123.5 89.9108C123.5 74.7539 111.276 62.4229 96.2501 62.4229C81.2246 62.4229 69.0004 74.7539 69.0004 89.9108Z" fill="#007EF3"/>
<path d="M96.1486 26.3659L95.6721 26.2145L95.5757 26.5177L95.8095 26.7335L96.1486 26.3659ZM104.025 58.3774L103.554 58.2088L103.368 58.7284L103.903 58.8624L104.025 58.3774ZM77.8211 8.46373L77.3732 8.68594L77.5683 9.07924L77.9835 8.93662L77.8211 8.46373ZM53.1337 6.75774L52.7211 7.04023L53.1337 7.64273L53.5462 7.04022L53.1337 6.75774ZM28.7067 7.96373L28.6094 8.45418L28.9695 8.52558L29.1455 8.20348L28.7067 7.96373ZM11.8517 24.878L12.172 25.2619L12.4007 25.0711L12.3419 24.7791L11.8517 24.878ZM11.5212 25.15L11.8369 25.5377L11.837 25.5376L11.5212 25.15ZM0.499999 48.2934L2.98023e-08 48.2933L0 48.2933L0.499999 48.2934ZM10.1185 70.2369L10.595 70.3883L10.6914 70.0848L10.4572 69.8691L10.1185 70.2369ZM28.4464 88.1381L28.8944 87.9159L28.6992 87.5226L28.284 87.6652L28.4464 88.1381ZM53.1339 89.8441L53.5464 89.5616L53.1339 88.9591L52.7214 89.5616L53.1339 89.8441ZM64.5871 96.0966L65.0781 96.0022L65.0023 95.6074L64.6004 95.5967L64.5871 96.0966ZM128.5 89.9103H129V89.9103L128.5 89.9103ZM32.4639 84.8141L31.9913 84.9773L31.9913 84.9774L32.4639 84.8141ZM30.3384 83.1418L30.2909 83.6396L30.291 83.6396L30.3384 83.1418ZM29.6139 83.0891L29.6199 82.5891H29.6139V83.0891ZM28.3669 83.0561L28.3388 83.5553L28.3394 83.5553L28.3669 83.0561ZM27.2904 83.2343L27.1033 82.7707L27.103 82.7708L27.2904 83.2343ZM15.3472 70.5756L15.799 70.7899L15.799 70.7899L15.3472 70.5756ZM14.6675 67.5661L14.9833 67.1785L14.9833 67.1785L14.6675 67.5661ZM5.49999 48.2949L4.99999 48.2948L5.49999 48.2949ZM14.6777 29.0279L14.9934 29.4157L14.9934 29.4157L14.6777 29.0279ZM16.943 26.617L16.4813 26.4249L16.4813 26.425L16.943 26.617ZM17.0145 24.8922L16.5385 25.0452L16.5385 25.0453L17.0145 24.8922ZM29.2194 13.2945L29.0421 13.762L29.0421 13.762L29.2194 13.2945ZM31.1644 13.2217L31.376 13.6747L31.3761 13.6747L31.1644 13.2217ZM32.4679 11.7765L32.9403 11.9405L32.9403 11.9404L32.4679 11.7765ZM73.8034 11.7882L74.276 11.625L74.2759 11.6249L73.8034 11.7882ZM75.9286 13.4605L75.9763 12.9628L75.9761 12.9627L75.9286 13.4605ZM77.8994 13.5465L77.8711 14.0457L77.8723 14.0457L77.8994 13.5465ZM78.9766 13.368L79.1638 13.8316L79.1641 13.8315L78.9766 13.368ZM90.9196 26.0265L90.4679 25.8121L90.4678 25.8122L90.9196 26.0265ZM91.5993 29.0362L91.2835 29.4238L91.2835 29.4238L91.5993 29.0362ZM98.9961 57.5399L98.9536 58.0381L99.3227 58.0696L99.4603 57.7256L98.9961 57.5399ZM69.1604 72.3004L69.1489 72.8002L69.4293 72.8067L69.581 72.5707L69.1604 72.3004ZM69.0306 72.2969L69.013 72.7966L69.0132 72.7966L69.0306 72.2969ZM66.1801 70.2724L66.6454 70.0892V70.0892L66.1801 70.2724ZM66.8994 63.2559L67.253 62.9024L67.2529 62.9023L66.8994 63.2559ZM63.3636 63.2559L63.0101 62.9023L63.0101 62.9023L63.3636 63.2559ZM61.5276 72.1041L61.9929 71.9209L61.9929 71.9209L61.5276 72.1041ZM66.6861 76.9316L67.1447 77.1308L67.3674 76.618L66.8331 76.4537L66.6861 76.9316ZM64.0199 91.0538L63.9692 91.5513L64.5392 91.6093L64.5196 91.0367L64.0199 91.0538ZM95.8095 26.7335C104.465 34.7186 107.51 47.1628 103.554 58.2088L104.496 58.546C108.587 47.1221 105.438 34.2558 96.4876 25.9984L95.8095 26.7335ZM96.3151 22.0302C96.3151 23.4704 96.0992 24.8708 95.6721 26.2145L96.6251 26.5174C97.0839 25.0741 97.3151 23.5715 97.3151 22.0302H96.3151ZM82.4756 8.19073C90.1062 8.19073 96.3151 14.3996 96.3151 22.0302H97.3151C97.3151 13.8473 90.6585 7.19074 82.4756 7.19074V8.19073ZM77.9835 8.93662C79.425 8.4415 80.9323 8.19073 82.4756 8.19073V7.19074C80.8229 7.19074 79.2057 7.45947 77.6587 7.99085L77.9835 8.93662ZM64.9731 0.999998C70.2764 0.999998 75.0613 4.02577 77.3732 8.68594L78.269 8.24153C75.7899 3.24422 70.6598 0 64.9731 0V0.999998ZM53.5462 7.04022C56.0425 3.39433 60.2341 0.999998 64.9731 0.999998V0C59.8892 0 55.3953 2.56965 52.7211 6.47526L53.5462 7.04022ZM41.2939 0.999998C46.033 0.999998 50.2245 3.39433 52.7211 7.04023L53.5462 6.47524C50.8718 2.56966 46.3779 0 41.2939 0V0.999998ZM29.1455 8.20348C31.5414 3.81845 36.178 0.999998 41.2939 0.999998V0C35.8078 0 30.837 3.02203 28.2679 7.72399L29.1455 8.20348ZM25.908 8.19073C26.8225 8.19073 27.7254 8.27887 28.6094 8.45418L28.804 7.47329C27.855 7.2851 26.8869 7.19074 25.908 7.19074V8.19073ZM12.0685 22.0302C12.0685 14.3996 18.2774 8.19073 25.908 8.19073V7.19074C17.7251 7.19074 11.0685 13.8473 11.0685 22.0302H12.0685ZM12.3419 24.7791C12.1602 23.8783 12.0685 22.9585 12.0685 22.0302H11.0685C11.0685 23.0244 11.1667 24.0106 11.3616 24.9768L12.3419 24.7791ZM11.837 25.5376C11.9608 25.4368 12.0721 25.3453 12.172 25.2619L11.5314 24.494C11.4354 24.5741 11.3272 24.6631 11.2054 24.7623L11.837 25.5376ZM0.999998 48.2935C1.00221 39.4355 4.95145 31.1423 11.8369 25.5377L11.2056 24.7622C4.08754 30.5561 0.00228941 39.1338 2.98023e-08 48.2933L0.999998 48.2935ZM10.4572 69.8691C4.42249 64.312 0.998033 56.5478 0.999998 48.2935L0 48.2933C-0.00203162 56.828 3.54 64.8588 9.77979 70.6047L10.4572 69.8691ZM9.95223 74.5716C9.95223 73.1319 10.1681 71.7318 10.595 70.3883L9.64197 70.0854C9.1834 71.5285 8.95223 73.0308 8.95223 74.5716H9.95223ZM23.792 88.4111C16.1611 88.4111 9.95223 82.2022 9.95223 74.5716H8.95223C8.95223 82.7545 15.6088 89.4111 23.792 89.4111V88.4111ZM28.284 87.6652C26.8426 88.1603 25.3352 88.4111 23.792 88.4111V89.4111C25.4447 89.4111 27.0618 89.1423 28.6089 88.611L28.284 87.6652ZM41.2942 95.6018C35.9909 95.6018 31.2062 92.5761 28.8944 87.9159L27.9985 88.3603C30.4777 93.3576 35.6075 96.6018 41.2942 96.6018V95.6018ZM52.7214 89.5616C50.2248 93.2075 46.0332 95.6018 41.2942 95.6018V96.6018C46.3781 96.6018 50.872 94.0322 53.5464 90.1266L52.7214 89.5616ZM64.6004 95.5967C60.0154 95.4749 55.9774 93.1114 53.5464 89.5616L52.7214 90.1266C55.3254 93.9292 59.6544 96.4657 64.5739 96.5964L64.6004 95.5967ZM96.2503 121.898C80.814 121.898 67.9098 110.74 65.0781 96.0022L64.0961 96.1909C67.0154 111.384 80.3197 122.898 96.2503 122.898V121.898ZM128 89.9103C128 107.552 113.753 121.898 96.2503 121.898V122.898C114.312 122.898 129 108.097 129 89.9103H128ZM103.903 58.8624C117.724 62.3213 128 74.9293 128 89.9103L129 89.9103C129 74.4634 118.404 61.4609 104.146 57.8924L103.903 58.8624ZM55.1336 61.7211V81.7626H56.1336V61.7211H55.1336ZM53.1337 59.7211C54.2383 59.7211 55.1336 60.6165 55.1336 61.7211H56.1336C56.1336 60.0642 54.7905 58.7211 53.1337 58.7211V59.7211ZM51.1337 61.7211C51.1337 60.6165 52.029 59.7211 53.1337 59.7211V58.7211C51.4768 58.7211 50.1337 60.0642 50.1337 61.7211H51.1337ZM51.1337 81.7626V61.7211H50.1337V81.7626H51.1337ZM41.2939 91.6021C46.72 91.6021 51.1337 87.1887 51.1337 81.7626H50.1337C50.1337 86.6364 46.1678 90.6021 41.2939 90.6021V91.6021ZM31.9913 84.9774C33.3603 88.9401 37.0989 91.6021 41.2939 91.6021V90.6021C37.5249 90.6021 34.1661 88.2101 32.9365 84.6508L31.9913 84.9774ZM30.291 83.6396C31.0708 83.714 31.7356 84.2368 31.9913 84.9773L32.9365 84.6509C32.5528 83.5399 31.5556 82.7557 30.3859 82.6441L30.291 83.6396ZM29.608 83.5891C29.752 83.5908 29.8644 83.5988 30.2909 83.6396L30.386 82.6441C29.9644 82.6038 29.8119 82.5914 29.6199 82.5891L29.608 83.5891ZM29.5742 83.5891H29.6139V82.5891H29.5742V83.5891ZM28.3394 83.5553C28.7424 83.5776 29.1576 83.5891 29.5742 83.5891V82.5891C29.1758 82.5891 28.779 82.5781 28.3945 82.5569L28.3394 83.5553ZM27.4776 83.698C27.751 83.5876 28.0448 83.5387 28.3388 83.5553L28.3951 82.5569C27.9531 82.532 27.5124 82.6056 27.1033 82.7707L27.4776 83.698ZM23.7915 84.4113C25.066 84.4113 26.3067 84.1715 27.4779 83.6979L27.103 82.7708C26.0522 83.1957 24.9389 83.4113 23.7915 83.4113V84.4113ZM13.9517 74.5719C13.9517 79.9978 18.3653 84.4113 23.7915 84.4113V83.4113C18.9176 83.4113 14.9517 79.4454 14.9517 74.5719H13.9517ZM14.8955 70.3613C14.2692 71.6817 13.9517 73.0994 13.9517 74.5719H14.9517C14.9517 73.2463 15.2368 71.9751 15.799 70.7899L14.8955 70.3613ZM14.3516 67.9537C15.0657 68.5356 15.2901 69.5294 14.8955 70.3614L15.799 70.7899C16.3909 69.5419 16.0543 68.0512 14.9833 67.1785L14.3516 67.9537ZM4.99999 48.2948C4.99821 55.9443 8.40768 63.1106 14.3516 67.9537L14.9833 67.1785C9.27179 62.5247 5.99828 55.643 5.99999 48.295L4.99999 48.2948ZM14.3621 28.6402C8.41509 33.4805 5.00178 40.6452 4.99999 48.2948L5.99999 48.295C6.0017 40.9471 9.27888 34.0668 14.9934 29.4157L14.3621 28.6402ZM16.4813 26.425C16.2564 26.9657 15.8704 27.4122 14.362 28.6402L14.9934 29.4157C16.482 28.2037 17.07 27.6137 17.4046 26.8089L16.4813 26.425ZM16.5385 25.0453C16.6839 25.4975 16.6636 25.9867 16.4813 26.4249L17.4046 26.809C17.6783 26.1512 17.7085 25.4174 17.4905 24.7392L16.5385 25.0453ZM16.0685 22.0305C16.0685 23.0598 16.2264 24.0742 16.5385 25.0452L17.4905 24.7392C17.2106 23.8682 17.0685 22.9571 17.0685 22.0305H16.0685ZM25.908 12.191C20.4821 12.191 16.0685 16.6043 16.0685 22.0305H17.0685C17.0685 17.1566 21.0343 13.191 25.908 13.191V12.191ZM29.3968 12.827C28.2837 12.4047 27.1093 12.191 25.908 12.191V13.191C26.9896 13.191 28.0437 13.3832 29.0421 13.762L29.3968 12.827ZM30.9528 12.7687C30.4633 12.9974 29.9018 13.0185 29.3967 12.827L29.0421 13.762C29.8001 14.0494 30.6421 14.0176 31.376 13.6747L30.9528 12.7687ZM31.9956 11.6125C31.8184 12.1229 31.4424 12.5399 30.9528 12.7687L31.3761 13.6747C32.1105 13.3315 32.6745 12.706 32.9403 11.9405L31.9956 11.6125ZM41.2939 5.00024C37.1047 5.00024 33.3682 7.65719 31.9956 11.6126L32.9403 11.9404C34.1732 8.38778 37.5302 6.00024 41.2939 6.00024V5.00024ZM51.1337 14.8397C51.1337 9.41383 46.7201 5.00024 41.2939 5.00024V6.00024C46.1678 6.00024 50.1337 9.96613 50.1337 14.8397H51.1337ZM51.1337 39.1182V14.8397H50.1337V39.1182H51.1337ZM53.1337 41.1182C52.029 41.1182 51.1337 40.2228 51.1337 39.1182H50.1337C50.1337 40.7751 51.4768 42.1182 53.1337 42.1182V41.1182ZM55.1336 39.1182C55.1336 40.2228 54.2383 41.1182 53.1337 41.1182V42.1182C54.7905 42.1182 56.1336 40.7751 56.1336 39.1182H55.1336ZM55.1336 14.8397V39.1182H56.1336V14.8397H55.1336ZM64.9731 5.00024C59.5473 5.00024 55.1336 9.41358 55.1336 14.8397H56.1336C56.1336 9.96588 60.0995 6.00024 64.9731 6.00024V5.00024ZM74.2759 11.6249C72.9065 7.66225 69.1681 5.00024 64.9731 5.00024V6.00024C68.7421 6.00024 72.1007 8.39222 73.3308 11.9515L74.2759 11.6249ZM75.9761 12.9627C75.1963 12.8883 74.5317 12.3656 74.276 11.625L73.3308 11.9515C73.7145 13.0624 74.7114 13.8466 75.8811 13.9582L75.9761 12.9627ZM76.6456 13.0132C76.5193 13.0132 76.4019 13.0036 75.9763 12.9628L75.8809 13.9582C76.2898 13.9974 76.4609 14.0132 76.6456 14.0132V13.0132ZM76.6929 13.0132H76.6456V14.0132H76.6929V13.0132ZM77.9276 13.0473C77.5252 13.0245 77.1097 13.0132 76.6929 13.0132V14.0132C77.092 14.0132 77.4885 14.024 77.8711 14.0457L77.9276 13.0473ZM78.7894 12.9043C78.5161 13.0147 78.2223 13.0633 77.9265 13.0472L77.8723 14.0457C78.3134 14.0697 78.7536 13.9972 79.1638 13.8316L78.7894 12.9043ZM82.4756 12.191C81.2011 12.191 79.9601 12.4308 78.7891 12.9045L79.1641 13.8315C80.2146 13.4066 81.3281 13.191 82.4756 13.191V12.191ZM92.3151 22.0305C92.3151 16.6046 87.9017 12.191 82.4756 12.191V13.191C87.3494 13.191 91.3151 17.1569 91.3151 22.0305H92.3151ZM91.3713 26.2408C91.9977 24.9209 92.3151 23.5031 92.3151 22.0305H91.3151C91.3151 23.3563 91.03 24.6275 90.4679 25.8121L91.3713 26.2408ZM91.9152 28.6486C91.2011 28.0668 90.9767 27.073 91.3714 26.2407L90.4678 25.8122C89.8759 27.0604 90.2125 28.5511 91.2835 29.4238L91.9152 28.6486ZM99.4603 57.7256C103.554 47.4917 100.532 35.6689 91.9151 28.6486L91.2835 29.4238C99.5609 36.1675 102.463 47.5256 98.5318 57.3542L99.4603 57.7256ZM96.2501 57.9231C97.1606 57.9231 98.0624 57.962 98.9536 58.0381L99.0386 57.0417C98.1192 56.9633 97.1891 56.9231 96.2501 56.9231V57.9231ZM69.581 72.5707C75.2443 63.7604 85.0847 57.9231 96.2501 57.9231V56.9231C84.727 56.9231 74.5774 62.9484 68.7398 72.03L69.581 72.5707ZM69.0132 72.7966C69.0597 72.7982 69.1058 72.7992 69.1489 72.8002L69.1719 71.8005C69.1279 71.7995 69.0876 71.7985 69.048 71.7972L69.0132 72.7966ZM65.7149 70.4555C66.2682 71.861 67.5087 72.7435 69.013 72.7966L69.0483 71.7972C67.945 71.7582 67.054 71.1273 66.6454 70.0892L65.7149 70.4555ZM66.5458 66.4381C65.4656 67.5183 65.1539 69.0306 65.7149 70.4555L66.6454 70.0892C66.2294 69.0326 66.4557 67.9424 67.2529 67.1452L66.5458 66.4381ZM66.5458 63.6094C67.3269 64.3907 67.3268 65.6571 66.5458 66.4381L67.2529 67.1452C68.4245 65.9736 68.4244 64.0741 67.253 62.9024L66.5458 63.6094ZM63.7171 63.6095C64.4984 62.8284 65.7649 62.8285 66.5458 63.6094L67.2529 62.9023C66.0814 61.7308 64.1819 61.7309 63.0101 62.9023L63.7171 63.6095ZM61.9929 71.9209C60.8436 69.0025 61.5037 65.8229 63.7172 63.6094L63.0101 62.9023C60.5145 65.3979 59.7676 68.9993 61.0624 72.2873L61.9929 71.9209ZM66.8331 76.4537C64.6469 75.7814 62.8755 74.1627 61.9929 71.9209L61.0624 72.2873C62.0552 74.809 64.0589 76.6468 66.5392 77.4095L66.8331 76.4537ZM64.5001 89.9108C64.5001 85.3692 65.4443 81.0464 67.1447 77.1308L66.2275 76.7324C64.4735 80.7713 63.5001 85.2295 63.5001 89.9108H64.5001ZM64.5196 91.0367C64.5068 90.6627 64.5001 90.2874 64.5001 89.9108H63.5001C63.5001 90.2992 63.507 90.6859 63.5202 91.0709L64.5196 91.0367ZM55.1336 81.7626C55.1336 86.8502 59.0134 91.0468 63.9692 91.5513L64.0705 90.5564C59.6194 90.1033 56.1336 86.3315 56.1336 81.7626H55.1336ZM96.2501 116.899C81.5048 116.899 69.5004 104.796 69.5004 89.9108H68.5004C68.5004 105.34 80.9444 117.899 96.2501 117.899V116.899ZM123 89.9108C123 104.796 110.995 116.899 96.2501 116.899V117.899C111.556 117.899 124 105.34 124 89.9108H123ZM96.2501 62.9229C110.995 62.9229 123 75.0259 123 89.9108H124C124 74.4818 111.556 61.9229 96.2501 61.9229V62.9229ZM69.5004 89.9108C69.5004 75.0259 81.5048 62.9229 96.2501 62.9229V61.9229C80.9444 61.9229 68.5004 74.4818 68.5004 89.9108H69.5004Z" fill="#007EF3"/>
<path fill-rule="evenodd" clip-rule="evenodd" d="M104.775 81.3353H108.198C111.247 81.3353 113.728 83.8273 113.728 86.8898V92.9315C113.728 95.9945 111.247 98.4863 108.198 98.4863H104.775V101.96C104.775 105.023 102.294 107.514 99.2445 107.514H93.2553C90.2058 107.514 87.7248 105.023 87.7248 101.96V98.4863H84.3023C81.2531 98.4863 78.7721 95.9945 78.7721 92.9315V86.8898C78.7721 83.827 81.2528 81.3353 84.3023 81.3353H87.7248V77.8613C87.7248 74.7986 90.2058 72.3068 93.2553 72.3068H99.2445C102.294 72.3068 104.775 74.7986 104.775 77.8613V81.3353ZM108.198 93.4865C108.49 93.4865 108.728 93.2378 108.728 92.9318V86.89C108.728 86.5843 108.49 86.3355 108.198 86.3355H102.275C100.894 86.3355 99.775 85.2163 99.775 83.8355V77.8615C99.775 77.5558 99.537 77.307 99.2445 77.307H93.2553C92.9628 77.307 92.7248 77.5558 92.7248 77.8615V83.8355C92.7248 85.2163 91.6055 86.3355 90.2248 86.3355H84.3023C84.0101 86.3355 83.7721 86.5843 83.7721 86.89V92.9318C83.7721 93.2378 84.0098 93.4865 84.3023 93.4865H90.2248C91.6055 93.4865 92.7248 94.6058 92.7248 95.9865V101.96C92.7248 102.266 92.9628 102.515 93.2553 102.515H99.2445C99.537 102.515 99.775 102.266 99.775 101.96V95.9865C99.775 94.6058 100.894 93.4865 102.275 93.4865H108.198Z" fill="#007EF3"/>
<path d="M104.775 81.3353H104.275V81.8353H104.775V81.3353ZM104.775 98.4863V97.9863H104.275V98.4863H104.775ZM87.7248 98.4863H88.2248V97.9863H87.7248V98.4863ZM87.7248 81.3353V81.8353H88.2248V81.3353H87.7248ZM108.198 80.8353H104.775V81.8353H108.198V80.8353ZM114.228 86.8898C114.228 83.5532 111.525 80.8353 108.198 80.8353V81.8353C110.969 81.8353 113.228 84.1014 113.228 86.8898H114.228ZM114.228 92.9315V86.8898H113.228V92.9315H114.228ZM108.198 98.9863C111.525 98.9863 114.228 96.2686 114.228 92.9315H113.228C113.228 95.7204 110.969 97.9863 108.198 97.9863V98.9863ZM104.775 98.9863H108.198V97.9863H104.775V98.9863ZM105.275 101.96V98.4863H104.275V101.96H105.275ZM99.2445 108.014C102.572 108.014 105.275 105.297 105.275 101.96H104.275C104.275 104.749 102.016 107.014 99.2445 107.014V108.014ZM93.2553 108.014H99.2445V107.014H93.2553V108.014ZM87.2248 101.96C87.2248 105.297 89.9276 108.014 93.2553 108.014V107.014C90.484 107.014 88.2248 104.749 88.2248 101.96H87.2248ZM87.2248 98.4863V101.96H88.2248V98.4863H87.2248ZM84.3023 98.9863H87.7248V97.9863H84.3023V98.9863ZM78.2721 92.9315C78.2721 96.2686 80.9749 98.9863 84.3023 98.9863V97.9863C81.5313 97.9863 79.2721 95.7204 79.2721 92.9315H78.2721ZM78.2721 86.8898V92.9315H79.2721V86.8898H78.2721ZM84.3023 80.8353C80.9746 80.8353 78.2721 83.553 78.2721 86.8898H79.2721C79.2721 84.1011 81.531 81.8353 84.3023 81.8353V80.8353ZM87.7248 80.8353H84.3023V81.8353H87.7248V80.8353ZM87.2248 77.8613V81.3353H88.2248V77.8613H87.2248ZM93.2553 71.8068C89.9276 71.8068 87.2248 74.5245 87.2248 77.8613H88.2248C88.2248 75.0727 90.484 72.8068 93.2553 72.8068V71.8068ZM99.2445 71.8068H93.2553V72.8068H99.2445V71.8068ZM105.275 77.8613C105.275 74.5245 102.572 71.8068 99.2445 71.8068V72.8068C102.016 72.8068 104.275 75.0727 104.275 77.8613H105.275ZM105.275 81.3353V77.8613H104.275V81.3353H105.275ZM108.228 92.9318C108.228 92.9536 108.22 92.9692 108.211 92.9783C108.203 92.9871 108.198 92.9865 108.198 92.9865V93.9865C108.787 93.9865 109.228 93.4927 109.228 92.9318H108.228ZM108.228 86.89V92.9318H109.228V86.89H108.228ZM108.198 86.8355C108.198 86.8355 108.203 86.835 108.211 86.8438C108.22 86.8529 108.228 86.8684 108.228 86.89H109.228C109.228 86.3292 108.787 85.8355 108.198 85.8355V86.8355ZM102.275 86.8355H108.198V85.8355H102.275V86.8355ZM99.275 83.8355C99.275 85.4924 100.618 86.8355 102.275 86.8355V85.8355C101.17 85.8355 100.275 84.9401 100.275 83.8355H99.275ZM99.275 77.8615V83.8355H100.275V77.8615H99.275ZM99.2445 77.807C99.2449 77.807 99.2498 77.8065 99.2582 77.8153C99.267 77.8245 99.275 77.8399 99.275 77.8615H100.275C100.275 77.3007 99.8338 76.8071 99.2445 76.8071V77.807ZM93.2553 77.807H99.2445V76.8071H93.2553V77.807ZM93.2248 77.8615C93.2248 77.8399 93.2329 77.8245 93.2416 77.8153C93.2501 77.8065 93.2549 77.807 93.2553 77.807V76.8071C92.666 76.8071 92.2248 77.3007 92.2248 77.8615H93.2248ZM93.2248 83.8355V77.8615H92.2248V83.8355H93.2248ZM90.2248 86.8355C91.8817 86.8355 93.2248 85.4924 93.2248 83.8355H92.2248C92.2248 84.9401 91.3294 85.8355 90.2248 85.8355V86.8355ZM84.3023 86.8355H90.2248V85.8355H84.3023V86.8355ZM84.2721 86.89C84.2721 86.8684 84.2801 86.8529 84.2889 86.8437C84.2974 86.8349 84.3021 86.8355 84.3023 86.8355V85.8355C83.7132 85.8355 83.2721 86.3294 83.2721 86.89H84.2721ZM84.2721 92.9318V86.89H83.2721V92.9318H84.2721ZM84.3023 92.9865C84.3019 92.9865 84.2973 92.9871 84.2889 92.9784C84.2803 92.9693 84.2721 92.9538 84.2721 92.9318H83.2721C83.2721 93.4924 83.7126 93.9865 84.3023 93.9865V92.9865ZM90.2248 92.9865H84.3023V93.9865H90.2248V92.9865ZM93.2248 95.9865C93.2248 94.3296 91.8817 92.9865 90.2248 92.9865V93.9865C91.3294 93.9865 92.2248 94.8819 92.2248 95.9865H93.2248ZM93.2248 101.96V95.9865H92.2248V101.96H93.2248ZM93.2553 102.015C93.2549 102.015 93.2501 102.015 93.2416 102.007C93.2329 101.997 93.2248 101.982 93.2248 101.96H92.2248C92.2248 102.521 92.666 103.015 93.2553 103.015V102.015ZM99.2445 102.015H93.2553V103.015H99.2445V102.015ZM99.275 101.96C99.275 101.982 99.267 101.997 99.2582 102.007C99.2498 102.015 99.2449 102.015 99.2445 102.015V103.015C99.8338 103.015 100.275 102.521 100.275 101.96H99.275ZM99.275 95.9865V101.96H100.275V95.9865H99.275ZM102.275 92.9865C100.618 92.9865 99.275 94.3296 99.275 95.9865H100.275C100.275 94.8819 101.17 93.9865 102.275 93.9865V92.9865ZM108.198 92.9865H102.275V93.9865H108.198V92.9865Z" fill="#007EF3"/>
<path d="M55.4424 49.5094C55.0392 48.5419 54.0489 47.9126 52.9997 47.9694C51.9597 48.0256 51.0454 48.7439 50.7424 49.7394C50.4432 50.7229 50.7944 51.8229 51.6119 52.4484C52.4524 53.0914 53.6407 53.1321 54.5224 52.5444C55.5012 51.8916 55.8947 50.5949 55.4424 49.5094Z" fill="#007EF3" stroke="#007EF3"/>
</svg>
