<svg width="188" height="135" viewBox="0 0 188 135" fill="none" xmlns="http://www.w3.org/2000/svg">
<mask id="mask0_0_234" style="mask-type:luminance" maskUnits="userSpaceOnUse" x="-22" y="-46" width="232" height="233">
<rect x="-22" y="-45.1531" width="232" height="232" rx="116" fill="white"/>
</mask>
<g mask="url(#mask0_0_234)">
<path d="M0 85.4622V119.517C0 121.692 1.7636 123.456 3.93919 123.456H55.5753L77.4424 115.947L99.3095 123.456H184.061C186.237 123.456 186.164 121.692 186.164 119.517V88.0967C186.164 86.3867 187.444 84.7234 186.416 83.3574L147.991 32.3294C146.502 30.3528 144.171 29.1903 141.697 29.1903L70.5154 26.62L13.5727 29.1903L0 85.4622Z" fill="#B8C9EA"/>
<path d="M13.5723 29.1899V24.9034C13.5723 19.2417 18.1622 14.6519 23.8238 14.6519H114.113C124.986 14.6519 135.192 19.8939 141.525 28.7317L141.854 29.1899H13.5723Z" fill="#D6E0F4"/>
<path d="M141.525 28.7317C135.192 19.8939 124.986 14.6519 114.113 14.6519H98.9152C109.788 14.6519 119.994 19.8939 126.327 28.7317L126.655 29.1899H141.854L141.525 28.7317Z" fill="#B8C9EA"/>
<path d="M103.315 0C107.361 0 110.641 3.28009 110.641 7.32613V14.6523H95.9891V7.32613C95.9891 3.28009 99.2688 0 103.315 0Z" fill="#FF9F6B"/>
<path d="M1.38208 79.7318H80.7717L59.2424 42.047H10.4714L1.38208 79.7318Z" fill="#FF9F6B"/>
<path d="M155.308 42.047H115.078C112.902 42.047 111.138 43.8106 111.138 45.9862V63.6174C111.138 65.793 112.902 67.5566 115.078 67.5566H174.517L155.308 42.047Z" fill="#007DF2"/>
<path d="M55.5753 45.9862V123.456H99.3092V45.9862C99.3092 43.8106 97.5456 42.047 95.37 42.047H59.5145C57.3389 42.047 55.5753 43.811 55.5753 45.9862H55.5753Z" fill="#D6E0F4"/>
<path d="M66.6049 78.8124V57.0161C66.6049 54.8406 68.3685 53.077 70.544 53.077H84.34C86.5156 53.077 88.2792 54.8406 88.2792 57.0161V78.8124C88.2792 80.988 86.5156 82.7516 84.34 82.7516H70.544C68.3685 82.7516 66.6049 80.988 66.6049 78.8124Z" fill="#007DF2"/>
<circle cx="27.5291" cy="117.076" r="17.7168" transform="rotate(-37.9705 27.5291 117.076)" fill="#007DF2"/>
<circle cx="27.5291" cy="117.076" r="6.35851" transform="rotate(-37.9705 27.5291 117.076)" fill="#D5D9F2"/>
<circle cx="137.375" cy="117.121" r="17.7168" transform="rotate(-37.9705 137.375 117.121)" fill="#007DF2"/>
<circle cx="137.375" cy="117.121" r="6.35851" transform="rotate(-37.9705 137.375 117.121)" fill="#D5D9F2"/>
<path d="M176.487 110.195H188V91.1833H176.487C175.399 91.1833 174.517 92.0653 174.517 93.1529V108.226C174.517 109.314 175.399 110.195 176.487 110.195Z" fill="#FF9F6B"/>
<path d="M37.5196 58.0523H33.3454V53.8778C33.3454 52.311 32.0753 51.0409 30.5085 51.0409C28.9413 51.0409 27.6716 52.311 27.6716 53.8778V58.0523H23.4967C21.9295 58.0523 20.6598 59.3224 20.6598 60.8892C20.6598 62.456 21.9299 63.7261 23.4967 63.7261H27.6712V67.9007C27.6712 69.4675 28.9413 70.7376 30.5081 70.7376C32.0753 70.7376 33.345 69.4675 33.345 67.9007V63.7265H37.5192C39.0864 63.7265 40.3561 62.4564 40.3561 60.8896C40.3565 59.3224 39.0867 58.0523 37.5196 58.0523Z" fill="#D6E0F4"/>
<path d="M121.566 80.7699H117.422C115.855 80.7699 114.585 79.4998 114.585 77.933C114.585 76.3662 115.855 75.0961 117.422 75.0961H121.566C123.133 75.0961 124.403 76.3662 124.403 77.933C124.403 79.4998 123.133 80.7699 121.566 80.7699Z" fill="#8FACE0"/>
</g>
</svg>
