<svg width="115" height="129" viewBox="0 0 115 129" fill="none" xmlns="http://www.w3.org/2000/svg">
<path fill-rule="evenodd" clip-rule="evenodd" d="M67.0944 3.24813C71.3074 1.44173 75.8432 0.510681 80.4271 0.510977C99.1102 0.512458 114.255 15.6592 114.254 34.3427C114.259 48.2968 110.339 61.971 102.94 73.8027L102.263 74.8904L92.0321 119.917C91.0409 124.276 87.514 127.603 83.1053 128.338C77.106 129.338 71.4318 125.286 70.4311 119.287L63.3216 76.6465C62.8968 74.1122 60.9109 72.1266 58.3767 71.7015C55.0954 71.1514 51.9894 73.3651 51.4393 76.6465L44.3298 119.289C43.5969 123.702 40.2673 127.232 35.9051 128.222C29.9752 129.568 24.077 125.852 22.7312 119.922L12.4983 74.8952L11.8205 73.8074C4.41983 61.9749 0.497465 48.2989 0.502205 34.3427C0.501909 29.7588 1.43325 25.223 3.23936 21.01C10.6015 3.83822 30.49 -4.11404 47.6618 3.24813C53.8693 5.89256 60.8869 5.89256 67.0944 3.24813ZM98.0254 72.7197L98.9165 71.2978C105.845 60.217 109.517 47.4114 109.514 34.3427C109.514 30.404 108.714 26.5065 107.163 22.8863C100.835 8.11783 83.7327 1.27584 68.9642 7.60387C61.5629 10.7617 53.1933 10.7617 45.792 7.60387C42.1715 6.04867 38.2719 5.24886 34.3315 5.253C18.2733 5.27137 5.26023 18.2844 5.24186 34.3427C5.23831 47.412 8.91065 60.2188 15.8397 71.3001L16.7308 72.722C16.8706 72.9475 16.9728 73.1939 17.0341 73.4519L27.3524 118.865C27.9155 121.351 29.9278 123.249 32.4428 123.666C35.8592 124.232 39.0881 121.921 39.6541 118.505L46.7636 75.862C47.5205 71.3289 51.0726 67.7768 55.6058 67.0199C61.4681 66.0409 67.0138 70 67.9926 75.862L75.102 118.502C75.5212 121.013 77.4162 123.022 79.8986 123.586C83.2768 124.354 86.6381 122.238 87.4062 118.86L97.7221 73.4496C97.7834 73.1915 97.8856 72.9451 98.0254 72.7197Z" fill="#007DF2"/>
<path d="M80.4271 0.510977L80.4271 0.00877673H80.4271L80.4271 0.510977ZM67.0944 3.24813L67.2912 3.71015L67.2923 3.70969L67.0944 3.24813ZM114.254 34.3427L113.752 34.3426V34.3428L114.254 34.3427ZM102.94 73.8027L102.515 73.5364L102.514 73.5371L102.94 73.8027ZM102.263 74.8904L101.836 74.6248L101.792 74.6966L101.773 74.7792L102.263 74.8904ZM92.0321 119.917L92.5218 120.029L92.5218 120.028L92.0321 119.917ZM83.1053 128.338L83.1879 128.833H83.1879L83.1053 128.338ZM70.4311 119.287L69.9358 119.369L69.9358 119.369L70.4311 119.287ZM63.3216 76.6465L63.817 76.5639L63.8169 76.5634L63.3216 76.6465ZM58.3767 71.7015L58.4598 71.2062L58.4597 71.2062L58.3767 71.7015ZM51.4393 76.6465L50.944 76.5634L50.9439 76.5639L51.4393 76.6465ZM44.3298 119.289L43.8345 119.207L43.8344 119.207L44.3298 119.289ZM35.9051 128.222L36.0162 128.712L35.9051 128.222ZM22.7312 119.922L23.2209 119.811L23.2209 119.811L22.7312 119.922ZM12.4983 74.8952L12.988 74.7839L12.9692 74.7014L12.9245 74.6296L12.4983 74.8952ZM11.8205 73.8074L12.2467 73.5418L12.2463 73.5411L11.8205 73.8074ZM0.502205 34.3427L1.0044 34.3428V34.3426L0.502205 34.3427ZM3.23936 21.01L2.77779 20.8121L2.77778 20.8121L3.23936 21.01ZM47.6618 3.24813L47.4639 3.7097L47.465 3.71015L47.6618 3.24813ZM98.9165 71.2978L99.342 71.5644L99.3423 71.564L98.9165 71.2978ZM98.0254 72.7197L97.5999 72.453L97.5986 72.455L98.0254 72.7197ZM109.514 34.3427L109.012 34.3427V34.3428L109.514 34.3427ZM107.163 22.8863L106.701 23.0841L106.701 23.0841L107.163 22.8863ZM68.9642 7.60387L69.1613 8.06579L69.162 8.06548L68.9642 7.60387ZM45.792 7.60387L45.5938 8.06531L45.5949 8.06579L45.792 7.60387ZM34.3315 5.253L34.331 4.7508H34.3309L34.3315 5.253ZM5.24186 34.3427L4.73966 34.3421V34.3425L5.24186 34.3427ZM15.8397 71.3001L15.4139 71.5664L15.4142 71.5668L15.8397 71.3001ZM16.7308 72.722L17.1576 72.4573L17.1563 72.4553L16.7308 72.722ZM17.0341 73.4519L17.5239 73.3407L17.5227 73.3358L17.0341 73.4519ZM27.3524 118.865L27.8422 118.754L27.8421 118.754L27.3524 118.865ZM32.4428 123.666L32.5249 123.17H32.5249L32.4428 123.666ZM39.6541 118.505L39.1588 118.422L39.1587 118.423L39.6541 118.505ZM46.7636 75.862L46.2683 75.7793L46.2683 75.7795L46.7636 75.862ZM55.6058 67.0199L55.6885 67.5153H55.6885L55.6058 67.0199ZM67.9926 75.862L68.4879 75.7795L68.4879 75.7793L67.9926 75.862ZM75.102 118.502L74.6067 118.585L74.6067 118.585L75.102 118.502ZM79.8986 123.586L80.0099 123.097L80.0099 123.097L79.8986 123.586ZM87.4062 118.86L87.8959 118.972L87.8959 118.971L87.4062 118.86ZM97.7221 73.4496L97.2335 73.3334L97.2323 73.3383L97.7221 73.4496ZM80.4271 0.00877673C75.7752 0.00847608 71.172 0.953343 66.8965 2.78657L67.2923 3.70969C71.4427 1.93011 75.9112 1.01288 80.427 1.01318L80.4271 0.00877673ZM114.756 34.3427C114.757 15.3819 99.3876 0.0102798 80.4271 0.00877673L80.427 1.01318C98.8328 1.01464 113.753 15.9365 113.752 34.3426L114.756 34.3427ZM103.366 74.0689C110.815 62.1574 114.762 48.3908 114.756 34.3425L113.752 34.3428C113.757 48.2028 109.863 61.7846 102.515 73.5364L103.366 74.0689ZM102.689 75.156L103.367 74.0683L102.514 73.5371L101.836 74.6248L102.689 75.156ZM92.5218 120.028L102.752 75.0017L101.773 74.7792L91.5424 119.806L92.5218 120.028ZM83.1879 128.833C87.7977 128.064 91.4854 124.586 92.5218 120.029L91.5424 119.806C90.5964 123.965 87.2303 127.141 83.0226 127.842L83.1879 128.833ZM69.9358 119.369C70.9821 125.642 76.9151 129.879 83.1879 128.833L83.0227 127.842C77.297 128.797 71.8815 124.93 70.9265 119.204L69.9358 119.369ZM62.8263 76.7291L69.9358 119.369L70.9265 119.204L63.817 76.5639L62.8263 76.7291ZM58.2936 72.1968C60.6166 72.5865 62.437 74.4066 62.8263 76.7295L63.8169 76.5634C63.3567 73.8179 61.2052 71.6668 58.4598 71.2062L58.2936 72.1968ZM51.9346 76.7295C52.4388 73.7218 55.2858 71.6926 58.2937 72.1968L58.4597 71.2062C54.9049 70.6103 51.54 73.0085 50.944 76.5634L51.9346 76.7295ZM44.8252 119.372L51.9347 76.7291L50.9439 76.5639L43.8345 119.207L44.8252 119.372ZM36.0162 128.712C40.5774 127.677 44.0589 123.985 44.8252 119.371L43.8344 119.207C43.135 123.418 39.9572 126.788 35.7939 127.732L36.0162 128.712ZM22.2415 120.033C23.6486 126.233 29.8158 130.119 36.0162 128.712L35.7939 127.732C30.1345 129.017 24.5053 125.47 23.2209 119.811L22.2415 120.033ZM12.0086 75.0065L22.2415 120.033L23.2209 119.811L12.988 74.7839L12.0086 75.0065ZM11.3943 74.073L12.072 75.1607L12.9245 74.6296L12.2467 73.5418L11.3943 74.073ZM4.75942e-06 34.3425C-0.0047669 48.3929 3.94408 62.1613 11.3947 74.0737L12.2463 73.5411C4.89557 61.7884 0.999697 48.2048 1.0044 34.3428L4.75942e-06 34.3425ZM2.77778 20.8121C0.944875 25.0876 -0.000295862 29.6908 4.72949e-06 34.3427L1.0044 34.3426C1.00411 29.8268 1.92163 25.3583 3.70093 21.2079L2.77778 20.8121ZM47.8597 2.78656C30.433 -4.6849 10.2493 3.38541 2.77779 20.8121L3.70092 21.2079C10.9538 4.29102 30.547 -3.54318 47.4639 3.7097L47.8597 2.78656ZM66.8976 2.78611C60.8158 5.37697 53.9403 5.37697 47.8586 2.78611L47.465 3.71015C53.7982 6.40815 60.958 6.40815 67.2912 3.71015L66.8976 2.78611ZM98.4909 71.0311L97.5999 72.453L98.451 72.9863L99.342 71.5644L98.4909 71.0311ZM109.012 34.3428C109.015 47.3173 105.369 60.0307 98.4906 71.0315L99.3423 71.564C106.321 60.4034 110.02 47.5054 110.017 34.3425L109.012 34.3428ZM106.701 23.0841C108.226 26.6418 109.012 30.472 109.012 34.3427L110.017 34.3426C110.016 30.336 109.203 26.3712 107.624 22.6885L106.701 23.0841ZM69.162 8.06548C83.6755 1.84668 100.482 8.57057 106.701 23.0841L107.624 22.6885C101.187 7.66509 83.7898 0.704996 68.7664 7.14226L69.162 8.06548ZM45.5949 8.06579C53.1221 11.2773 61.6341 11.2773 69.1613 8.06579L68.7671 7.14196C61.4917 10.246 53.2645 10.246 45.9891 7.14196L45.5949 8.06579ZM34.332 5.7552C38.2042 5.75113 42.0361 6.53708 45.5938 8.0653L45.9902 7.14244C42.3069 5.56027 38.3397 4.74658 34.331 4.7508L34.332 5.7552ZM5.74406 34.3432C5.76211 18.5619 18.5507 5.77325 34.3321 5.7552L34.3309 4.7508C17.9958 4.76949 4.75835 18.0069 4.73966 34.3421L5.74406 34.3432ZM16.2655 71.0339C9.38641 60.0324 5.74053 47.3179 5.74406 34.3428L4.73966 34.3425C4.73608 47.506 8.4349 60.4052 15.4139 71.5664L16.2655 71.0339ZM17.1563 72.4553L16.2653 71.0335L15.4142 71.5668L16.3052 72.9887L17.1563 72.4553ZM17.5227 73.3358C17.449 73.0257 17.3261 72.729 17.1576 72.4573L16.304 72.9867C16.4152 73.1659 16.4966 73.3622 16.5455 73.5681L17.5227 73.3358ZM27.8421 118.754L17.5238 73.3407L16.5444 73.5632L26.8626 118.976L27.8421 118.754ZM32.5249 123.17C30.2113 122.787 28.3602 121.041 27.8422 118.754L26.8626 118.976C27.4708 121.661 29.6443 123.711 32.3607 124.161L32.5249 123.17ZM39.1587 118.423C38.638 121.565 35.6676 123.691 32.5249 123.17L32.3606 124.161C36.0507 124.773 39.5382 122.277 40.1496 118.587L39.1587 118.423ZM46.2683 75.7795L39.1588 118.422L40.1495 118.587L47.259 75.9446L46.2683 75.7795ZM55.5231 66.5246C50.7783 67.3168 47.0605 71.0346 46.2683 75.7793L47.259 75.9448C47.9805 71.6231 51.3668 68.2368 55.6885 67.5153L55.5231 66.5246ZM68.4879 75.7793C67.4635 69.6437 61.659 65.4999 55.523 66.5246L55.6885 67.5153C61.2772 66.5819 66.5641 70.3562 67.4972 75.9448L68.4879 75.7793ZM75.5974 118.42L68.4879 75.7795L67.4972 75.9446L74.6067 118.585L75.5974 118.42ZM80.0099 123.097C77.7263 122.577 75.983 120.73 75.5974 118.42L74.6067 118.585C75.0594 121.297 77.1061 123.466 79.7873 124.076L80.0099 123.097ZM86.9165 118.749C86.2099 121.857 83.1177 123.803 80.0099 123.097L79.7872 124.076C83.4359 124.906 87.0663 122.62 87.8959 118.972L86.9165 118.749ZM97.2323 73.3383L86.9165 118.749L87.8959 118.971L98.2118 73.5608L97.2323 73.3383ZM97.5986 72.455C97.4301 72.7266 97.3072 73.0233 97.2335 73.3334L98.2107 73.5657C98.2596 73.3598 98.341 73.1636 98.4522 72.9844L97.5986 72.455Z" fill="#007DF2"/>
<path d="M26.5703 17.1021L26.0964 14.7797C21.3567 15.73 12.3514 20.9057 12.3514 33.6909H17.091C17.091 21.6735 26.6414 19.5099 27.0443 19.4222L26.5703 17.1021Z" fill="#007DF2" stroke="#007DF2"/>
<rect x="31.31" y="14.7323" width="4.73966" height="4.73966" fill="#007DF2" stroke="#007DF2"/>
</svg>
