<svg width="129" height="116" viewBox="0 0 129 116" fill="none" xmlns="http://www.w3.org/2000/svg">
<path fill-rule="evenodd" clip-rule="evenodd" d="M128.344 97.6051L122.044 54.1151C120.688 44.7513 116.001 36.1841 108.848 29.9921C101.694 23.8 92.5433 20.3899 83.0818 20.3899C79.3897 20.3899 75.9251 21.7656 73.2503 24.0662V9.25027C73.2503 4.42538 69.3249 0.500015 64.5 0.500015C59.6751 0.500015 55.7497 4.42538 55.7497 9.25027V24.0605C53.0774 21.7626 49.6153 20.3899 45.9182 20.3899C36.4567 20.3899 27.3061 23.8002 20.1524 29.9921C12.9987 36.1846 8.31183 44.7513 6.95554 54.1151L0.656106 97.6051C0.0283377 101.94 1.31238 106.326 4.17896 109.637C7.04555 112.949 11.2017 114.849 15.5818 114.849H45.9179C54.2339 114.849 60.9994 108.083 60.9994 99.7672V62.8764C62.2369 61.8408 63.406 60.7123 64.4995 59.4958C65.593 60.7123 66.7623 61.8406 67.9998 62.8764V67.1112C67.9998 68.4918 69.1191 69.6113 70.4999 69.6113C71.8807 69.6113 73 68.4918 73 67.1112V66.347C74.6648 67.2925 76.4131 68.0983 78.2321 68.7563C78.6087 79.3103 84.1488 84.3915 91.8651 90.3297C92.3196 90.6792 92.8558 90.8487 93.3881 90.8487C94.1376 90.8487 94.8786 90.5129 95.3712 89.8732C96.2132 88.7791 96.0089 87.2093 94.9146 86.3673C87.7552 80.8571 84.0036 77.1893 83.3248 70.0921C83.5603 70.1111 83.7956 70.1208 84.0303 70.1208C85.6264 70.1208 87.1964 69.6808 88.5912 68.8248C89.7162 68.1343 90.6513 67.2197 91.3503 66.145C94.3436 68.6355 97.8075 69.7721 102.523 69.9271C102.551 69.9281 102.579 69.9286 102.607 69.9286C103.949 69.9286 105.059 68.8625 105.104 67.5107C105.149 66.1307 104.067 64.9752 102.688 64.9299C98.785 64.8012 95.7322 63.9966 92.7183 60.4618C92.3421 56.8752 89.7535 53.7433 86.0514 52.8571C79.0189 51.1738 73.8858 45.2283 73.25 38.0456V33.2282C74.2815 28.6833 78.4087 25.3895 83.0815 25.3895C100.042 25.3895 114.664 38.0469 117.096 54.8316L123.395 98.3217C123.814 101.219 122.956 104.151 121.04 106.365C119.124 108.578 116.346 109.848 113.417 109.848H83.0818C77.5229 109.848 73.0005 105.326 73.0005 99.767V89.7152C73.0005 88.3346 71.8812 87.2151 70.5004 87.2151C69.1196 87.2151 68.0003 88.3346 68.0003 89.7152V99.767C68.0003 108.083 74.7658 114.848 83.0818 114.848H113.418C117.798 114.848 121.954 112.949 124.821 109.637C127.688 106.326 128.972 101.94 128.344 97.6051ZM55.9997 99.767C55.9997 105.326 51.4774 109.848 45.9184 109.848H15.582C12.6542 109.848 9.87588 108.579 7.95957 106.365C6.04327 104.151 5.18499 101.219 5.60475 98.3217L11.9039 54.8316C14.3353 38.0469 28.9582 25.3895 45.9182 25.3895C50.5996 25.3895 54.717 28.6796 55.7497 33.2277V38.0459C55.1137 45.2286 49.9808 51.1738 42.9484 52.8571C39.2465 53.7433 36.6579 56.8752 36.2817 60.4618C33.2678 63.9964 30.215 64.8012 26.3121 64.9299C24.9321 64.9754 23.8503 66.131 23.8955 67.5107C23.94 68.8628 25.0501 69.9286 26.3929 69.9286C26.4206 69.9286 26.4486 69.9281 26.4766 69.9271C31.1915 69.7721 34.6554 68.6358 37.6485 66.1457C39.224 68.576 41.9446 70.1188 44.9804 70.1188C45.2119 70.1188 45.4437 70.1093 45.6749 70.0908C44.9967 77.1888 41.2451 80.8569 34.0851 86.3673C32.9911 87.2093 32.7866 88.7791 33.6286 89.8732C34.1211 90.5129 34.8621 90.8487 35.6116 90.8487C36.1437 90.8487 36.6802 90.6792 37.1347 90.3297C44.8507 84.3915 50.3911 79.3103 50.7673 68.7563C52.5864 68.0983 54.3347 67.2925 55.9995 66.347V99.767H55.9997ZM87.6617 62.2408C88.1429 60.2295 86.8987 58.202 84.8876 57.7205C75.7168 55.5249 69.0341 47.7439 68.2589 38.3584C68.2531 38.2901 68.2504 38.2211 68.2504 38.1526V9.25027C68.2504 7.18246 66.5681 5.50016 64.5002 5.50016C62.4324 5.50016 60.7501 7.18246 60.7501 9.25027V38.1531C60.7501 38.2216 60.7474 38.2906 60.7416 38.3589C59.9661 47.7442 53.2834 55.5251 44.1126 57.7205C42.1016 58.202 40.857 60.2295 41.3383 62.2406C41.7441 63.9356 43.2416 65.1192 44.9804 65.1192C45.2734 65.1192 45.5689 65.0839 45.8589 65.0147C52.0261 63.5384 57.4303 60.1925 61.4869 55.3399C61.8369 54.9209 62.1774 54.4904 62.4979 54.0616C62.9699 53.4303 63.712 53.0586 64.5002 53.0586C65.2885 53.0586 66.0305 53.4306 66.5026 54.0616C66.8241 54.4914 67.1643 54.9216 67.5141 55.3404C71.5702 60.1925 76.9744 63.5384 83.142 65.0147C84.1161 65.2484 85.1226 65.0879 85.9764 64.5637C86.8302 64.0396 87.4287 63.2149 87.6617 62.2408Z" fill="white"/>
<path d="M122.044 54.1151L121.55 54.1868L122.044 54.1151ZM128.344 97.6051L128.839 97.5335V97.5335L128.344 97.6051ZM108.848 29.9921L108.52 30.3702L108.52 30.3702L108.848 29.9921ZM73.2503 24.0662H72.7502V25.1558L73.5763 24.4453L73.2503 24.0662ZM55.7497 24.0605L55.4237 24.4396L56.2497 25.1498V24.0605H55.7497ZM20.1524 29.9921L19.8252 29.6141L19.8252 29.6141L20.1524 29.9921ZM6.95554 54.1151L7.45039 54.1868H7.45039L6.95554 54.1151ZM0.656106 97.6051L0.161256 97.5335L0.161254 97.5335L0.656106 97.6051ZM4.17896 109.637L3.8009 109.965L3.80091 109.965L4.17896 109.637ZM60.9994 62.8764L60.6785 62.4929L60.4994 62.6428V62.8764H60.9994ZM64.4995 59.4958L64.8714 59.1615L64.4995 58.7478L64.1276 59.1615L64.4995 59.4958ZM67.9998 62.8764H68.4999V62.6428L68.3208 62.4929L67.9998 62.8764ZM73 66.347L73.2469 65.9122L72.5 65.4879V66.347H73ZM78.2321 68.7563L78.7318 68.7385L78.7198 68.401L78.4022 68.2861L78.2321 68.7563ZM91.8651 90.3297L91.5601 90.7259L91.5602 90.726L91.8651 90.3297ZM95.3712 89.8732L95.7674 90.1782L95.7674 90.1781L95.3712 89.8732ZM94.9146 86.3673L94.6097 86.7636L94.6097 86.7636L94.9146 86.3673ZM83.3248 70.0921L83.365 69.5937L82.7702 69.5457L82.8271 70.1397L83.3248 70.0921ZM88.5912 68.8248L88.8527 69.2509L88.8528 69.2509L88.5912 68.8248ZM91.3503 66.145L91.6701 65.7606L91.2378 65.4009L90.9311 65.8723L91.3503 66.145ZM102.523 69.9271L102.541 69.4274L102.539 69.4273L102.523 69.9271ZM105.104 67.5107L104.604 67.4943L104.604 67.4943L105.104 67.5107ZM102.688 64.9299L102.671 65.4297L102.671 65.4297L102.688 64.9299ZM92.7183 60.4618L92.221 60.514L92.2372 60.6682L92.3378 60.7862L92.7183 60.4618ZM86.0514 52.8571L86.1678 52.3708L86.1678 52.3708L86.0514 52.8571ZM73.25 38.0456H72.75V38.0677L72.7519 38.0897L73.25 38.0456ZM73.25 33.2282L72.7624 33.1176L72.75 33.1722V33.2282H73.25ZM117.096 54.8316L116.601 54.9033V54.9033L117.096 54.8316ZM123.395 98.3217L122.9 98.3933V98.3933L123.395 98.3217ZM124.821 109.637L124.443 109.31L124.443 109.31L124.821 109.637ZM55.9997 99.767H56.4998V99.2669H55.9997V99.767ZM7.95957 106.365L8.33764 106.037L8.33761 106.037L7.95957 106.365ZM5.60475 98.3217L6.0996 98.3933L6.0996 98.3933L5.60475 98.3217ZM11.9039 54.8316L11.4091 54.7599V54.7599L11.9039 54.8316ZM55.7497 33.2277H56.2498V33.1717L56.2373 33.117L55.7497 33.2277ZM55.7497 38.0459L56.2478 38.09L56.2498 38.068V38.0459H55.7497ZM42.9484 52.8571L42.832 52.3708L42.8319 52.3708L42.9484 52.8571ZM36.2817 60.4618L36.6621 60.7862L36.7628 60.6682L36.7789 60.514L36.2817 60.4618ZM26.3121 64.9299L26.3286 65.4297H26.3286L26.3121 64.9299ZM23.8955 67.5107L23.3958 67.5271L23.3958 67.5272L23.8955 67.5107ZM26.4766 69.9271L26.4602 69.4273L26.4588 69.4274L26.4766 69.9271ZM37.6485 66.1457L38.068 65.8737L37.7616 65.4011L37.3287 65.7613L37.6485 66.1457ZM45.6749 70.0908L46.1727 70.1384L46.2294 69.5448L45.6351 69.5924L45.6749 70.0908ZM34.0851 86.3673L33.7801 85.9711L33.7801 85.9711L34.0851 86.3673ZM33.6286 89.8732L33.2323 90.1781L33.2324 90.1782L33.6286 89.8732ZM37.1347 90.3297L37.4395 90.726L37.4396 90.7259L37.1347 90.3297ZM50.7673 68.7563L50.5973 68.2861L50.2797 68.401L50.2676 68.7385L50.7673 68.7563ZM55.9995 66.347H56.4995V65.488L55.7526 65.9122L55.9995 66.347ZM55.9995 99.767H55.4995V100.267H55.9995V99.767ZM84.8876 57.7205L85.004 57.2342L85.004 57.2342L84.8876 57.7205ZM87.6617 62.2408L87.1754 62.1245L87.1754 62.1245L87.6617 62.2408ZM68.2589 38.3584L68.7572 38.3172L68.7571 38.3164L68.2589 38.3584ZM60.7416 38.3589L60.2434 38.3169L60.2433 38.3177L60.7416 38.3589ZM44.1126 57.7205L43.9962 57.2342L43.9962 57.2342L44.1126 57.7205ZM41.3383 62.2406L40.852 62.357L40.852 62.357L41.3383 62.2406ZM45.8589 65.0147L45.9751 65.501L45.9753 65.5009L45.8589 65.0147ZM61.4869 55.3399L61.8705 55.6606L61.8706 55.6604L61.4869 55.3399ZM62.4979 54.0616L62.0975 53.7622L62.0974 53.7622L62.4979 54.0616ZM66.5026 54.0616L66.1022 54.3611L66.1022 54.3611L66.5026 54.0616ZM67.5141 55.3404L67.1303 55.6609L67.1304 55.6611L67.5141 55.3404ZM83.142 65.0147L83.2587 64.5285L83.2584 64.5284L83.142 65.0147ZM85.9764 64.5637L85.7148 64.1375L85.7147 64.1376L85.9764 64.5637ZM121.55 54.1868L127.849 97.6768L128.839 97.5335L122.539 54.0434L121.55 54.1868ZM108.52 30.3702C115.583 36.4835 120.211 44.942 121.55 54.1868L122.539 54.0434C121.166 44.5607 116.419 35.8847 109.175 29.6141L108.52 30.3702ZM83.0818 20.8899C92.4231 20.8899 101.457 24.2567 108.52 30.3702L109.175 29.6141C101.93 23.3432 92.6635 19.8898 83.0818 19.8898V20.8899ZM73.5763 24.4453C76.1648 22.219 79.5149 20.8899 83.0818 20.8899V19.8898C79.2644 19.8898 75.6854 21.3123 72.9242 23.6871L73.5763 24.4453ZM72.7502 9.25027V24.0662H73.7503V9.25027H72.7502ZM64.5 1.00003C69.0487 1.00003 72.7502 4.70153 72.7502 9.25027H73.7503C73.7503 4.14923 69.601 0 64.5 0V1.00003ZM56.2497 9.25027C56.2497 4.70153 59.9513 1.00003 64.5 1.00003V0C59.399 0 55.2497 4.14923 55.2497 9.25027H56.2497ZM56.2497 24.0605V9.25027H55.2497V24.0605H56.2497ZM45.9182 20.8899C49.4904 20.8899 52.838 22.2162 55.4237 24.4396L56.0757 23.6813C53.3168 21.309 49.7402 19.8898 45.9182 19.8898V20.8899ZM20.4797 30.3702C27.5425 24.2569 36.5769 20.8899 45.9182 20.8899V19.8898C36.3365 19.8898 27.0698 23.3435 19.8252 29.6141L20.4797 30.3702ZM7.45039 54.1868C8.78945 44.942 13.4168 36.484 20.4797 30.3702L19.8252 29.6141C12.5806 35.8852 7.83421 44.5607 6.46069 54.0434L7.45039 54.1868ZM1.15096 97.6768L7.45039 54.1868L6.46069 54.0434L0.161256 97.5335L1.15096 97.6768ZM4.55702 109.31C1.78541 106.108 0.543989 101.868 1.15096 97.6768L0.161254 97.5335C-0.487313 102.012 0.839345 106.543 3.8009 109.965L4.55702 109.31ZM15.5818 114.349C11.3468 114.349 7.32863 112.512 4.55701 109.31L3.80091 109.965C6.76246 113.386 11.0565 115.349 15.5818 115.349V114.349ZM45.9179 114.349H15.5818V115.349H45.9179V114.349ZM60.4994 99.7672C60.4994 107.807 53.9578 114.349 45.9179 114.349V115.349C54.5101 115.349 61.4994 108.359 61.4994 99.7672H60.4994ZM60.4994 62.8764V99.7672H61.4994V62.8764H60.4994ZM64.1276 59.1615C63.0498 60.3606 61.8978 61.4727 60.6785 62.4929L61.3203 63.2598C62.5761 62.209 63.7621 61.064 64.8714 59.83L64.1276 59.1615ZM68.3208 62.4929C67.1014 61.4724 65.9492 60.3605 64.8714 59.1615L64.1276 59.83C65.2369 61.0641 66.4232 62.2088 67.6789 63.2598L68.3208 62.4929ZM68.4999 67.1112V62.8764H67.4998V67.1112H68.4999ZM70.4999 69.1113C69.3953 69.1113 68.4999 68.2157 68.4999 67.1112H67.4998C67.4998 68.7679 68.8429 70.1113 70.4999 70.1113V69.1113ZM72.5 67.1112C72.5 68.2157 71.6045 69.1113 70.4999 69.1113V70.1113C72.1569 70.1113 73.5 68.7679 73.5 67.1112H72.5ZM72.5 66.347V67.1112H73.5V66.347H72.5ZM78.4022 68.2861C76.6096 67.6376 74.887 66.8437 73.2469 65.9122L72.7531 66.7817C74.4425 67.7413 76.2166 68.5589 78.0621 69.2265L78.4022 68.2861ZM92.17 89.9334C88.3122 86.9646 85.0517 84.2483 82.7021 80.982C80.3648 77.7326 78.9167 73.9198 78.7318 68.7385L77.7325 68.7741C77.9241 74.1469 79.4343 78.1516 81.8903 81.5659C84.334 84.9632 87.7017 87.7566 91.5601 90.7259L92.17 89.9334ZM93.3881 90.3487C92.9625 90.3487 92.5341 90.2134 92.1699 89.9333L91.5602 90.726C92.105 91.1449 92.7492 91.3487 93.3881 91.3487V90.3487ZM94.975 89.5681C94.581 90.0799 93.989 90.3487 93.3881 90.3487V91.3487C94.2863 91.3487 95.1763 90.946 95.7674 90.1782L94.975 89.5681ZM94.6097 86.7636C95.4851 87.4372 95.6485 88.693 94.9749 89.5682L95.7674 90.1781C96.7779 88.8653 96.5328 86.9815 95.2196 85.971L94.6097 86.7636ZM82.8271 70.1397C83.1752 73.7802 84.3171 76.561 86.2931 79.1297C88.2547 81.6796 91.0302 84.0087 94.6097 86.7636L95.2196 85.9711C91.6396 83.2158 88.9596 80.9558 87.0858 78.52C85.2264 76.1029 84.1531 73.5011 83.8225 70.0445L82.8271 70.1397ZM84.0303 69.6208C83.8094 69.6208 83.5876 69.6116 83.365 69.5937L83.2846 70.5905C83.533 70.6105 83.7817 70.6208 84.0303 70.6208V69.6208ZM88.3297 68.3986C87.0131 69.2066 85.5336 69.6208 84.0303 69.6208V70.6208C85.7192 70.6208 87.3797 70.155 88.8527 69.2509L88.3297 68.3986ZM90.9311 65.8723C90.2728 66.8845 89.3918 67.7467 88.3296 68.3986L88.8528 69.2509C90.0407 68.5218 91.0297 67.5549 91.7695 66.4176L90.9311 65.8723ZM102.539 69.4273C97.9058 69.275 94.5579 68.1634 91.6701 65.7606L91.0305 66.5293C94.1293 69.1077 97.7091 70.2691 102.506 70.4268L102.539 69.4273ZM102.607 69.4286C102.585 69.4286 102.563 69.4282 102.541 69.4274L102.505 70.4268C102.539 70.428 102.573 70.4286 102.607 70.4286V69.4286ZM104.604 67.4943C104.569 68.5756 103.681 69.4286 102.607 69.4286V70.4286C104.218 70.4286 105.55 69.1495 105.604 67.5272L104.604 67.4943ZM102.671 65.4297C103.775 65.4659 104.641 66.3903 104.604 67.4943L105.604 67.5272C105.658 65.8712 104.36 64.4845 102.704 64.4302L102.671 65.4297ZM92.3378 60.7862C93.8897 62.6064 95.4701 63.7435 97.182 64.4366C98.8874 65.1271 100.693 65.3644 102.671 65.4297L102.704 64.4302C100.78 64.3667 99.1075 64.1373 97.5573 63.5097C96.0137 62.8847 94.5608 61.8521 93.0988 60.1374L92.3378 60.7862ZM85.935 53.3433C89.4241 54.1786 91.8661 57.131 92.221 60.514L93.2156 60.4096C92.818 56.6193 90.0829 53.3081 86.1678 52.3708L85.935 53.3433ZM72.7519 38.0897C73.4067 45.487 78.6939 51.6101 85.935 53.3433L86.1678 52.3708C79.344 50.7374 74.3648 44.9697 73.7481 38.0015L72.7519 38.0897ZM72.75 33.2282V38.0456H73.75V33.2282H72.75ZM83.0815 24.8895C78.1756 24.8895 73.8457 28.3445 72.7624 33.1176L73.7376 33.3389C74.7174 29.0222 78.6417 25.8895 83.0815 25.8895V24.8895ZM117.59 54.76C115.124 37.7293 100.29 24.8895 83.0815 24.8895V25.8895C99.7931 25.8895 114.205 38.3645 116.601 54.9033L117.59 54.76ZM123.89 98.25L117.59 54.7599L116.601 54.9033L122.9 98.3933L123.89 98.25ZM121.418 106.692C123.429 104.368 124.33 101.291 123.89 98.25L122.9 98.3933C123.299 101.147 122.483 103.933 120.662 106.037L121.418 106.692ZM113.417 110.348C116.491 110.348 119.407 109.015 121.418 106.692L120.662 106.037C118.841 108.142 116.2 109.348 113.417 109.348V110.348ZM83.0818 110.348H113.417V109.348H83.0818V110.348ZM72.5005 99.767C72.5005 105.602 77.2467 110.348 83.0818 110.348V109.348C77.799 109.348 73.5005 105.049 73.5005 99.767H72.5005ZM72.5005 89.7152V99.767H73.5005V89.7152H72.5005ZM70.5004 87.7151C71.605 87.7151 72.5005 88.6107 72.5005 89.7152H73.5005C73.5005 88.0585 72.1574 86.7151 70.5004 86.7151V87.7151ZM68.5004 89.7152C68.5004 88.6107 69.3958 87.7151 70.5004 87.7151V86.7151C68.8434 86.7151 67.5003 88.0585 67.5003 89.7152H68.5004ZM68.5004 99.767V89.7152H67.5003V99.767H68.5004ZM83.0818 114.348C75.042 114.348 68.5004 107.807 68.5004 99.767H67.5003C67.5003 108.359 74.4896 115.348 83.0818 115.348V114.348ZM113.418 114.348H83.0818V115.348H113.418V114.348ZM124.443 109.31C121.671 112.512 117.653 114.348 113.418 114.348V115.348C117.943 115.348 122.238 113.386 125.199 109.964L124.443 109.31ZM127.849 97.6768C128.456 101.868 127.215 106.108 124.443 109.31L125.199 109.965C128.161 106.543 129.487 102.012 128.839 97.5335L127.849 97.6768ZM45.9184 110.348C51.7535 110.348 56.4998 105.602 56.4998 99.767H55.4997C55.4997 105.049 51.2012 109.348 45.9184 109.348V110.348ZM15.582 110.348H45.9184V109.348H15.582V110.348ZM7.5815 106.692C9.59279 109.016 12.5091 110.348 15.582 110.348V109.348C12.7993 109.348 10.159 108.142 8.33764 106.037L7.5815 106.692ZM5.1099 98.25C4.66934 101.291 5.57022 104.369 7.58154 106.692L8.33761 106.037C6.51631 103.934 5.70064 101.147 6.0996 98.3933L5.1099 98.25ZM11.4091 54.7599L5.1099 98.25L6.0996 98.3933L12.3988 54.9033L11.4091 54.7599ZM45.9182 24.8895C28.7097 24.8895 13.876 37.7293 11.4091 54.7599L12.3988 54.9033C14.7945 38.3645 29.2067 25.8895 45.9182 25.8895V24.8895ZM56.2373 33.117C55.1528 28.3409 50.8328 24.8895 45.9182 24.8895V25.8895C50.3664 25.8895 54.2811 29.0183 55.2621 33.3385L56.2373 33.117ZM56.2498 38.0459V33.2277H55.2497V38.0459H56.2498ZM43.0648 53.3433C50.3058 51.6101 55.5928 45.4872 56.2478 38.09L55.2517 38.0018C54.6346 44.97 49.6558 50.7374 42.832 52.3708L43.0648 53.3433ZM36.7789 60.514C37.1338 57.131 39.5759 54.1786 43.0648 53.3433L42.8319 52.3708C38.9171 53.3081 36.182 56.6193 35.7844 60.4096L36.7789 60.514ZM26.3286 65.4297C28.3072 65.3644 30.1125 65.127 31.8179 64.4365C33.5299 63.7433 35.1102 62.6063 36.6621 60.7862L35.9012 60.1374C34.4392 61.8519 32.9863 62.8845 31.4426 63.5096C29.8924 64.1373 28.2199 64.3667 26.2956 64.4302L26.3286 65.4297ZM24.3953 67.4944C24.3591 66.3905 25.2245 65.4661 26.3286 65.4297L26.2956 64.4302C24.6396 64.4848 23.3415 65.8714 23.3958 67.5271L24.3953 67.4944ZM26.3929 69.4286C25.3189 69.4286 24.4309 68.5758 24.3953 67.4943L23.3958 67.5272C23.4492 69.1498 24.7813 70.4286 26.3929 70.4286V69.4286ZM26.4588 69.4274C26.4367 69.4282 26.4147 69.4286 26.3929 69.4286V70.4286C26.4265 70.4286 26.4605 70.428 26.4945 70.4268L26.4588 69.4274ZM37.3287 65.7613C34.4411 68.1636 31.0932 69.275 26.4602 69.4273L26.493 70.4268C31.2899 70.2691 34.8696 69.108 37.9682 66.5301L37.3287 65.7613ZM44.9804 69.6188C42.1171 69.6188 39.5531 68.1644 38.068 65.8737L37.2289 66.4177C38.8949 68.9876 41.7721 70.6188 44.9804 70.6188V69.6188ZM45.6351 69.5924C45.4167 69.6099 45.1983 69.6188 44.9804 69.6188V70.6188C45.2256 70.6188 45.4707 70.6088 45.7148 70.5892L45.6351 69.5924ZM34.3901 86.7636C37.9698 84.0085 40.7454 81.6793 42.707 79.1293C44.683 76.5603 45.8248 73.7793 46.1727 70.1384L45.1772 70.0433C44.8468 73.5003 43.7737 76.1023 41.9143 78.5195C40.0405 80.9556 37.3604 83.2157 33.7801 85.9711L34.3901 86.7636ZM34.0248 89.5682C33.3513 88.693 33.5148 87.4372 34.3901 86.7636L33.7801 85.9711C32.4673 86.9815 32.2218 88.8652 33.2323 90.1781L34.0248 89.5682ZM35.6116 90.3487C35.0107 90.3487 34.4187 90.0799 34.0248 89.5681L33.2324 90.1782C33.8235 90.946 34.7135 91.3487 35.6116 91.3487V90.3487ZM36.8299 89.9333C36.4656 90.2134 36.0371 90.3487 35.6116 90.3487V91.3487C36.2503 91.3487 36.8947 91.1449 37.4395 90.726L36.8299 89.9333ZM50.2676 68.7385C50.0829 73.9198 48.6348 77.7326 46.2975 80.982C43.9479 84.2483 40.6874 86.9646 36.8297 89.9334L37.4396 90.7259C41.2979 87.7566 44.6656 84.9632 47.1093 81.5659C49.5653 78.1516 51.0755 74.1469 51.267 68.7741L50.2676 68.7385ZM55.7526 65.9122C54.1124 66.8437 52.3899 67.6376 50.5973 68.2861L50.9374 69.2265C52.7829 68.5589 54.5569 67.7413 56.2464 66.7817L55.7526 65.9122ZM56.4995 99.767V66.347H55.4995V99.767H56.4995ZM55.9997 99.2669H55.9995V100.267H55.9997V99.2669ZM84.7712 58.2067C86.5137 58.6239 87.5924 60.3817 87.1754 62.1245L88.148 62.3572C88.6935 60.0774 87.2837 57.78 85.004 57.2342L84.7712 58.2067ZM67.7605 38.3995C68.5536 48.0008 75.3907 55.961 84.7712 58.2067L85.004 57.2342C76.0429 55.0888 69.5146 47.4871 68.7572 38.3172L67.7605 38.3995ZM67.7503 38.1526C67.7503 38.2344 67.7536 38.3174 67.7606 38.4004L68.7571 38.3164C68.7526 38.2629 68.7504 38.2079 68.7504 38.1526H67.7503ZM67.7503 9.25027V38.1526H68.7504V9.25027H67.7503ZM64.5002 6.00018C66.2919 6.00018 67.7503 7.45861 67.7503 9.25027H68.7504C68.7504 6.90631 66.8442 5.00015 64.5002 5.00015V6.00018ZM61.2501 9.25027C61.2501 7.45861 62.7086 6.00018 64.5002 6.00018V5.00015C62.1563 5.00015 60.2501 6.90631 60.2501 9.25027H61.2501ZM61.2501 38.1531V9.25027H60.2501V38.1531H61.2501ZM61.2399 38.4009C61.2469 38.3179 61.2501 38.2349 61.2501 38.1531H60.2501C60.2501 38.2084 60.2479 38.2633 60.2434 38.3169L61.2399 38.4009ZM44.229 58.2067C53.6095 55.9612 60.4466 48.001 61.24 38.4001L60.2433 38.3177C59.4856 47.4873 52.9573 55.0891 43.9962 57.2342L44.229 58.2067ZM41.8246 62.1242C41.4076 60.3817 42.4865 58.624 44.2291 58.2067L43.9962 57.2342C41.7167 57.78 40.3065 60.0773 40.852 62.357L41.8246 62.1242ZM44.9804 64.6192C43.4737 64.6192 42.1767 63.595 41.8246 62.1242L40.852 62.357C41.3115 64.2762 43.0095 65.6192 44.9804 65.6192V64.6192ZM45.7428 64.5283C45.49 64.5887 45.2335 64.6192 44.9804 64.6192V65.6192C45.3134 65.6192 45.6479 65.5791 45.9751 65.501L45.7428 64.5283ZM61.1033 55.0192C57.1158 59.7891 51.8054 63.0771 45.7425 64.5284L45.9753 65.5009C52.2468 63.9997 57.7448 60.5959 61.8705 55.6606L61.1033 55.0192ZM62.0974 53.7622C61.7824 54.1836 61.4475 54.6071 61.1032 55.0193L61.8706 55.6604C62.2263 55.2347 62.5724 54.7971 62.8984 54.361L62.0974 53.7622ZM64.5002 52.5586C63.5543 52.5586 62.6639 53.0047 62.0975 53.7622L62.8984 54.361C63.276 53.856 63.8696 53.5586 64.5002 53.5586V52.5586ZM66.9029 53.7621C66.3366 53.005 65.4463 52.5586 64.5002 52.5586V53.5586C65.1308 53.5586 65.7245 53.8562 66.1022 54.3611L66.9029 53.7621ZM67.8979 55.0199C67.5538 54.6079 67.219 54.1846 66.9029 53.7621L66.1022 54.3611C66.4291 54.7981 66.7749 55.2354 67.1303 55.6609L67.8979 55.0199ZM83.2584 64.5284C77.195 63.0771 71.8847 59.7891 67.8977 55.0197L67.1304 55.6611C71.2557 60.5959 76.7537 63.9997 83.0256 65.501L83.2584 64.5284ZM85.7147 64.1376C84.9739 64.5925 84.1035 64.7312 83.2587 64.5285L83.0254 65.5009C84.1287 65.7657 85.2713 65.5834 86.238 64.9898L85.7147 64.1376ZM87.1754 62.1245C86.9733 62.9695 86.4556 63.6828 85.7148 64.1375L86.2379 64.9898C87.2047 64.3965 87.8841 63.4603 88.148 62.3572L87.1754 62.1245Z" fill="white"/>
<path d="M68.1926 79.4149C68.5956 80.3812 69.5754 81.0039 70.6224 80.9542C71.6547 80.9052 72.5592 80.2032 72.8785 79.2236C73.2017 78.2314 72.8467 77.1118 72.0217 76.4763C71.1834 75.8305 69.9924 75.7933 69.1126 76.3798C68.1328 77.0326 67.7408 78.3294 68.1926 79.4149Z" fill="white" stroke="white"/>
</svg>
