<svg width="137" height="222" viewBox="0 0 137 222" fill="none" xmlns="http://www.w3.org/2000/svg">
<mask id="mask0_0_117" style="mask-type:luminance" maskUnits="userSpaceOnUse" x="-57" y="-10" width="233" height="232">
<rect x="-56.4047" y="-10" width="232" height="232" rx="116" fill="white"/>
</mask>
<g mask="url(#mask0_0_117)">
<path d="M63.6566 0C87.6169 0 92.5771 22.7626 92.5892 31.1223C92.5892 39.0889 91.0346 40.3048 91.089 48.3803C91.1253 54.514 92.9037 58.8088 92.7404 62.2931C91.7967 80.4402 67.2618 85.6726 60.257 85.7755C53.2522 85.8783 22.7529 79.9744 22.7529 65.8681C22.7529 56.0263 29.0137 40.2866 28.8443 29.356C28.4693 6.65395 47.4512 0 63.6566 0Z" fill="black"/>
<path fill-rule="evenodd" clip-rule="evenodd" d="M24.743 248.313L24.8882 407.845L64.8845 406.974L65.4894 399.588L91.2826 403.066L107.651 236.717L98.8136 194.12L40.398 192.523L24.743 248.313Z" fill="#3B4161"/>
<path fill-rule="evenodd" clip-rule="evenodd" d="M55.0367 206.877H97.5252L103.278 144.106L95.6016 96.0044L81.0839 82.0251L66.5299 75.5284L40.2468 79.5449L55.0367 206.877Z" fill="#56ADFF"/>
<path fill-rule="evenodd" clip-rule="evenodd" d="M47.7355 74.7541C37.803 75.0263 8.14448 85.7936 3.81336 96.7182C0.522677 105.005 -1.73362 179.989 5.99706 183.649C6.49333 183.889 7.01202 184.079 7.54562 184.218C7.07984 186.516 2.62775 239.742 3.75892 244.17C4.89009 248.598 7.86017 255.3 12.161 255.058C28.802 254.06 59.3738 232.217 62.4105 228.654C62.8762 221.903 64.1647 196.546 64.1647 196.546L61.5152 121.308L46.3503 79.8474C46.3503 79.8474 57.668 74.4819 47.7355 74.7541Z" fill="#F9F9F9"/>
<path fill-rule="evenodd" clip-rule="evenodd" d="M69.379 74.2823C86.4554 76.4055 110.561 89.6469 113.664 95.6778C116.277 100.747 114.952 166.373 114.952 166.373C114.952 166.373 105.274 179.651 109.635 198.747C113.64 216.362 114.825 240.141 110.627 244.587C103.707 241.085 94.8092 227.045 93.2062 223.585C91.6032 220.125 91.1858 200.55 89.9518 196.364C88.7178 192.178 83.195 118.071 83.195 118.071C83.195 118.071 80.6181 88.1346 69.379 74.2823Z" fill="#F9F9F9"/>
<path d="M26.3884 80.5854C34.9841 96.2585 52.3993 114.121 61.3761 120.939" stroke="#C9C9C9" stroke-width="1.20981" stroke-linecap="round" stroke-linejoin="round"/>
<path d="M78.0231 76.0789C85.6751 86.3985 87.6471 103.935 81.6525 121.743" stroke="#C9C9C9" stroke-width="1.20981" stroke-linecap="round" stroke-linejoin="round"/>
<path fill-rule="evenodd" clip-rule="evenodd" d="M35.0748 124.368C35.0748 121.613 36.735 119.129 39.2809 118.075C41.8268 117.021 44.7569 117.605 46.7045 119.554C48.652 121.504 49.2332 124.434 48.1771 126.979C47.1209 129.524 44.6354 131.182 41.88 131.18C38.1206 131.176 35.0748 128.128 35.0748 124.368Z" stroke="#353823" stroke-width="2.06272" stroke-linecap="round" stroke-linejoin="round"/>
<path fill-rule="evenodd" clip-rule="evenodd" d="M38.3897 124.368C38.3897 122.962 39.2371 121.693 40.5369 121.155C41.8366 120.617 43.3326 120.914 44.3274 121.909C45.3221 122.904 45.6197 124.4 45.0814 125.699C44.543 126.999 43.2747 127.847 41.8679 127.847C39.947 127.847 38.3897 126.289 38.3897 124.368Z" fill="#353823"/>
<path d="M40.0411 117.805C35.4438 100.922 35.1474 77.4278 47.0156 73.1935" stroke="#353823" stroke-width="2.06272" stroke-linecap="round" stroke-linejoin="round"/>
<path d="M67.7397 70.3202C74.5086 73.1874 80.9569 86.4106 82.4691 97.7344" stroke="#353823" stroke-width="2.06272" stroke-linecap="round" stroke-linejoin="round"/>
<path fill-rule="evenodd" clip-rule="evenodd" d="M75.1619 119.003C72.9963 108.538 76.2628 99.041 82.457 97.7345C88.6513 96.4279 95.4322 103.892 97.5796 114.357C99.7271 124.822 96.4787 134.319 90.2845 135.62C84.0903 136.92 77.3274 129.45 75.1619 119.003Z" stroke="#353823" stroke-width="2.06272" stroke-linecap="round" stroke-linejoin="round"/>
<path d="M33.0363 102.543L30.4231 153.422" stroke="#C9C9C9" stroke-width="1.20981" stroke-linecap="round" stroke-linejoin="round"/>
<path d="M25.6807 104.044L32.4737 113.516" stroke="#C9C9C9" stroke-width="1.20981" stroke-linecap="round" stroke-linejoin="round"/>
<path fill-rule="evenodd" clip-rule="evenodd" d="M48.3827 149.375L22.2629 155.624L48.3827 149.375Z" fill="#606060"/>
<path d="M48.3827 149.375L22.2629 155.624" stroke="#C9C9C9" stroke-width="1.20981" stroke-linecap="round" stroke-linejoin="round"/>
<path d="M23.5817 148.637L30.2356 153.718" stroke="#C9C9C9" stroke-width="1.20981" stroke-linecap="round" stroke-linejoin="round"/>
<path d="M49.3748 178.84C38.3897 183.262 12.2942 188.549 7.36418 184.169C0.770722 178.308 -1.10448 117.811 2.20435 101.763C4.13399 92.4234 13.879 86.4106 18.9602 83.991" stroke="#C9C9C9" stroke-width="1.20981" stroke-linecap="round" stroke-linejoin="round"/>
<path d="M41.5231 181.429C38.3897 177.455 37.192 157.638 38.7042 151.692" stroke="#C9C9C9" stroke-width="1.20981" stroke-linecap="round" stroke-linejoin="round"/>
<path fill-rule="evenodd" clip-rule="evenodd" d="M41.8679 155.563C41.8655 154.917 42.253 154.333 42.8496 154.084C43.4461 153.835 44.134 153.97 44.5919 154.426C45.0499 154.882 45.1877 155.57 44.9408 156.167C44.694 156.764 44.1113 157.154 43.4649 157.154C43.0419 157.156 42.6357 156.989 42.336 156.69C42.0364 156.392 41.8679 155.986 41.8679 155.563Z" fill="#C9C9C9"/>
<path fill-rule="evenodd" clip-rule="evenodd" d="M38.9583 204.137C35.485 205.478 31.7934 206.165 28.0701 206.164C25.3074 206.137 22.5615 205.73 19.9099 204.954C19.7107 205.721 19.6031 206.509 19.5893 207.301V219.937C19.5893 225.45 24.0579 229.918 29.5702 229.918C35.0825 229.918 39.5511 225.45 39.5511 219.937V207.289C39.5258 206.213 39.3256 205.149 38.9583 204.137V204.137Z" stroke="#C9C9C9" stroke-width="1.20981" stroke-linecap="round" stroke-linejoin="round"/>
<path fill-rule="evenodd" clip-rule="evenodd" d="M77.6722 115.246H129.833C132.997 115.246 134.884 117.72 134.067 120.769L113.93 194.846C112.923 198.038 110.016 200.25 106.671 200.369H54.5407C51.3831 200.369 49.4897 197.895 50.3063 194.846L70.4376 120.769C71.4398 117.584 74.3359 115.374 77.6722 115.246Z" fill="#007DF2"/>
<path fill-rule="evenodd" clip-rule="evenodd" d="M92.069 111.436H121.673C122.341 111.38 122.991 111.671 123.395 112.206C123.799 112.741 123.9 113.446 123.663 114.073L122.223 119.106C121.724 120.629 120.329 121.681 118.727 121.743H89.1231C88.456 121.795 87.8084 121.504 87.4053 120.97C87.0023 120.436 86.8996 119.733 87.1329 119.106L88.5726 114.073C89.0752 112.551 90.468 111.501 92.069 111.436Z" fill="#FF9F6B"/>
<path fill-rule="evenodd" clip-rule="evenodd" d="M48.2315 153.005C50.5377 151.671 52.9869 150.602 55.5327 149.817C59.2045 146.792 61.9024 134.845 62.8762 134.089C63.8501 133.333 67.1106 133.823 67.2074 134.954C67.6308 139.098 67.407 143.937 63.7352 148.262C74.4178 141.469 75.2284 138.457 78.1682 140.731C81.1081 143.005 82.1667 154.099 79.6442 158.685C72.6999 171.339 54.4318 173.051 48.8425 173.136C47.4512 167.117 47.4512 159.84 48.2315 153.005Z" fill="#F77F89"/>
<path d="M80.0495 144.022L70.7037 151.504" stroke="#A7464F" stroke-width="2.06272" stroke-linecap="round" stroke-linejoin="round"/>
<path d="M81.0476 151.765L69.1794 161.201" stroke="#A7464F" stroke-width="2.06272" stroke-linecap="round" stroke-linejoin="round"/>
<path fill-rule="evenodd" clip-rule="evenodd" d="M133.166 151.408C133.021 148.915 133.771 143.381 135.985 138.1C136.796 136.188 136.844 133.043 133.995 133.043C130.753 133.043 126.415 139.551 128.551 147.3C130.686 155.049 133.378 154.928 133.166 151.408Z" fill="#F77F89"/>
<path fill-rule="evenodd" clip-rule="evenodd" d="M123.125 136.763C125.702 136.763 133.535 152.261 133.481 154.142C133.426 156.023 132.61 158.884 131.394 158.739C130.178 158.594 120.003 145.643 120.003 141.245C120.003 138.699 121.244 136.763 123.125 136.763Z" fill="#F77F89"/>
<path fill-rule="evenodd" clip-rule="evenodd" d="M119.762 145.667C122.974 145.667 131.442 158.019 131.503 159.435C131.563 160.85 129.851 162.151 128.436 162.211C127.02 162.272 116.9 153.972 116.9 150.113C116.882 147.754 117.947 145.667 119.762 145.667Z" fill="#F77F89"/>
<path fill-rule="evenodd" clip-rule="evenodd" d="M122.726 168.768C124.117 168.702 127.988 165.242 127.988 162.52C127.988 161.449 125.284 158.679 123.929 158.763C122.574 158.848 119.81 164.056 119.864 165.381C119.919 166.706 120.905 168.835 122.726 168.768Z" fill="#F77F89"/>
<path d="M127.988 142.491C130.765 147.113 133.511 153.029 133.481 154.142" stroke="#A7464F" stroke-width="2.06272" stroke-linecap="round" stroke-linejoin="round"/>
<path d="M121.703 146.574C125.526 149.454 131.436 158.255 131.485 159.435" stroke="#A94B53" stroke-width="2.06272" stroke-linecap="round" stroke-linejoin="round"/>
<path fill-rule="evenodd" clip-rule="evenodd" d="M38.1357 35.3809C38.1357 21.5346 49.2115 10.2834 62.9005 10.2834C76.5895 10.2834 87.6411 21.5104 87.6411 35.3567C87.6411 49.2029 76.5411 60.4542 62.9005 60.4542C49.2599 60.4542 38.1357 49.2332 38.1357 35.3809Z" fill="#F77F89"/>
<path fill-rule="evenodd" clip-rule="evenodd" d="M59.2348 37.1895C59.5009 35.5926 60.4446 34.413 61.3882 34.5703C62.3319 34.7276 62.8521 36.143 62.598 37.74C62.344 39.3369 61.3882 40.5165 60.4446 40.3653C59.5009 40.214 58.9746 38.7925 59.2348 37.1895Z" fill="#B5545C"/>
<path fill-rule="evenodd" clip-rule="evenodd" d="M77.8718 38.3873C78.1199 36.8931 79.0151 35.7922 79.8801 35.9374C80.7451 36.0826 81.2472 37.4073 81.0053 38.9014C80.7633 40.3955 79.8559 41.4904 78.9909 41.321C78.1259 41.1517 77.6238 39.8814 77.8718 38.3873Z" fill="#B5545C"/>
<path fill-rule="evenodd" clip-rule="evenodd" d="M41.9163 46.4204C43.3862 50.5095 47.0822 71.7598 46.1506 79.4784C50.022 85.346 67.2739 83.7128 72.4156 78.7465C69.8568 71.6026 69.7601 66.479 70.6977 60.4542C71.5869 54.8165 40.4464 42.3433 41.9163 46.4204Z" fill="#F77F89"/>
<path d="M72.6939 9.67848C72.9056 15.6368 67.4675 21.3289 52.6836 24.1539C54.3048 28.3337 54.4379 34.6187 46.3624 35.7499C36.944 37.0565 36.1758 25.0249 36.1758 25.0249L50.2822 8.35979C50.2822 8.35979 72.4882 3.70808 72.6939 9.67848Z" fill="black"/>
<path d="M68.2539 5.48647C67.649 10.7794 73.7404 23.6336 87.8467 23.9845C97.8761 23.9845 68.8406 0.187509 68.2539 5.48647Z" fill="black"/>
<path fill-rule="evenodd" clip-rule="evenodd" d="M51.8912 59.5649C50.5362 57.8531 52.4961 50.0498 54.6314 46.4748C57.2083 44.9565 66.3484 46.2208 71.0606 42.1679C72.4458 40.9581 73.1899 41.8533 74.2666 43.1781C76.1599 45.5009 81.8521 46.7047 83.9814 48.0173C84.2959 51.4048 81.1867 59.1597 79.8438 60.8957C77.7387 63.6481 58.4967 63.8961 51.8912 59.5649Z" fill="white"/>
<path d="M55.8775 47.1826C54.6314 45.1017 49.1872 35.7922 47.4512 33.4331" stroke="white" stroke-width="2.06272" stroke-linecap="round" stroke-linejoin="round"/>
<path d="M52.9619 59.0689C49.278 59.0689 40.519 47.5455 39.5209 43.6802" stroke="white" stroke-width="2.06272" stroke-linecap="round" stroke-linejoin="round"/>
<path fill-rule="evenodd" clip-rule="evenodd" d="M33.9013 37.4376C33.9013 32.9843 37.5114 29.3742 41.9647 29.3742C46.418 29.3742 50.0281 32.9843 50.0281 37.4376C50.0281 41.8908 46.418 45.5009 41.9647 45.5009C37.5114 45.5009 33.9013 41.8908 33.9013 37.4376H33.9013Z" fill="#F77F89"/>
<path d="M63.3178 212.709L91.5669 211.826" stroke="#737999" stroke-width="1.02834" stroke-linecap="round" stroke-linejoin="round"/>
<path d="M19.6437 253.576C10.5702 257.375 3.75894 250.606 3.7045 243.898C3.65006 237.189 6.30559 197.163 6.66853 193.17" stroke="#C9C9C9" stroke-width="1.20981" stroke-linecap="round" stroke-linejoin="round"/>
<path d="M114.813 105.253C115.285 91.5584 100.864 85.2916 94.9302 82.6058" stroke="#C9C9C9" stroke-width="1.20981" stroke-linecap="round" stroke-linejoin="round"/>
<path d="M111.995 241.962C113.126 234.661 113.204 214.904 111.293 207.367" stroke="#C9C9C9" stroke-width="1.20981" stroke-linecap="round" stroke-linejoin="round"/>
</g>
</svg>
