<svg width="97" height="129" viewBox="0 0 97 129" fill="none" xmlns="http://www.w3.org/2000/svg">
<path fill-rule="evenodd" clip-rule="evenodd" d="M86.8938 15.1383H69.4603V13.5212C69.4603 12.1407 68.341 11.0212 66.9603 11.0212H58.7448C58.7332 5.21775 54.0085 0.5 48.2023 0.5C42.396 0.5 37.6713 5.21775 37.6598 11.0212H29.4443C28.0635 11.0212 26.9443 12.1407 26.9443 13.5212V15.1383H9.51075C4.54225 15.1383 0.5 19.1805 0.5 24.149V119.489C0.5 121.954 0.5 128.5 7.01075 128.5H86.8938C91.8623 128.5 95.9043 124.458 95.9043 119.489V24.149C95.9045 19.1805 91.8623 15.1383 86.8938 15.1383ZM31.9443 16.0212H40.549C41.3488 16.0212 42.1003 15.6388 42.5708 14.992C43.0413 14.3452 43.1737 13.5125 42.9275 12.7515C42.7497 12.2025 42.6598 11.6275 42.6598 11.0425C42.6598 7.98625 45.146 5.5 48.2022 5.5C51.2585 5.5 53.7448 7.98625 53.7448 11.0425C53.7448 11.6275 53.6548 12.2025 53.477 12.7515C53.2308 13.5125 53.3633 14.3452 53.8337 14.992C54.3042 15.6388 55.0557 16.0212 55.8555 16.0212H64.4603V26.1385H31.9443V16.0212ZM86.894 123.5C89.1052 123.5 90.9045 121.701 90.9045 119.489H90.9043V24.149C90.9043 21.9375 89.1053 20.1383 86.8938 20.1383H69.4603V26.1385H82.4043C83.785 26.1385 84.9043 27.258 84.9043 28.6385V62.1198C84.9043 63.5005 83.785 64.6198 82.4043 64.6198C81.0235 64.6198 79.9043 63.5005 79.9043 62.1198V31.1385H16.5V112.5H79.9045V84.7228C79.9045 83.3423 81.0238 82.2227 82.4045 82.2227C83.7853 82.2227 84.9045 83.3423 84.9045 84.7228V115C84.9045 116.381 83.7853 117.5 82.4045 117.5H14.0002C12.6195 117.5 11.5002 116.381 11.5002 115V28.6385C11.5002 27.258 12.6195 26.1385 14.0002 26.1385H26.9443V20.1383H9.51075C7.29925 20.1383 5.5 21.9375 5.5 24.149V119.489C5.5 120.722 5.54775 122.238 5.92 123.031C6.03825 123.283 6.1405 123.5 7.01075 123.5H86.894Z" fill="#007EF3"/>
<path d="M69.4603 15.1383H68.9603V15.6383H69.4603V15.1383ZM58.7448 11.0212L58.2448 11.0222L58.2457 11.5212H58.7448V11.0212ZM37.6598 11.0212V11.5212H38.1588L38.1598 11.0222L37.6598 11.0212ZM26.9443 15.1383V15.6383H27.4443V15.1383H26.9443ZM95.9043 24.149L95.4043 24.149V24.149H95.9043ZM31.9443 16.0212V15.5212H31.4443V16.0212H31.9443ZM42.9275 12.7515L43.4032 12.5976L43.4032 12.5975L42.9275 12.7515ZM53.477 12.7515L53.0013 12.5975L53.0013 12.5976L53.477 12.7515ZM53.8337 14.992L53.4294 15.2861V15.2861L53.8337 14.992ZM64.4603 16.0212H64.9603V15.5212H64.4603V16.0212ZM64.4603 26.1385V26.6385H64.9603V26.1385H64.4603ZM31.9443 26.1385H31.4443V26.6385H31.9443V26.1385ZM90.9045 119.489H91.4045V118.989H90.9045V119.489ZM90.9043 119.489H90.4043V119.989H90.9043V119.489ZM69.4603 20.1383V19.6383H68.9603V20.1383H69.4603ZM69.4603 26.1385H68.9603V26.6385H69.4603V26.1385ZM79.9043 31.1385H80.4043V30.6385H79.9043V31.1385ZM16.5 31.1385V30.6385H16V31.1385H16.5ZM16.5 112.5H16V113H16.5V112.5ZM79.9045 112.5V113H80.4045V112.5H79.9045ZM26.9443 26.1385V26.6385H27.4443V26.1385H26.9443ZM26.9443 20.1383H27.4443V19.6383H26.9443V20.1383ZM5.92 123.031L6.37264 122.818L6.37256 122.818L5.92 123.031ZM69.4603 15.6383H86.8938V14.6383H69.4603V15.6383ZM68.9603 13.5212V15.1383H69.9603V13.5212H68.9603ZM66.9603 11.5212C68.0648 11.5212 68.9603 12.4169 68.9603 13.5212H69.9603C69.9603 11.8646 68.6172 10.5212 66.9603 10.5212V11.5212ZM58.7448 11.5212H66.9603V10.5212H58.7448V11.5212ZM48.2023 1C53.7327 1 58.2338 5.49443 58.2448 11.0222L59.2448 11.0203C59.2327 4.94106 54.2843 0 48.2023 0V1ZM38.1598 11.0222C38.1707 5.49443 42.6718 1 48.2023 1V0C42.1202 0 37.1718 4.94106 37.1598 11.0203L38.1598 11.0222ZM29.4443 11.5212H37.6598V10.5212H29.4443V11.5212ZM27.4443 13.5212C27.4443 12.4169 28.3397 11.5212 29.4443 11.5212V10.5212C27.7873 10.5212 26.4443 11.8646 26.4443 13.5212H27.4443ZM27.4443 15.1383V13.5212H26.4443V15.1383H27.4443ZM9.51075 15.6383H26.9443V14.6383H9.51075V15.6383ZM1 24.149C1 19.4566 4.81839 15.6383 9.51075 15.6383V14.6383C4.26611 14.6383 0 18.9044 0 24.149H1ZM1 119.489V24.149H0V119.489H1ZM7.01075 128C5.47066 128 4.35526 127.614 3.53682 127.031C2.71518 126.446 2.15567 125.635 1.77508 124.726C1.0055 122.887 1 120.733 1 119.489H0C0 120.71 -0.00550175 123.061 0.852608 125.112C1.28587 126.147 1.94712 127.127 2.95662 127.846C3.96934 128.567 5.29546 129 7.01075 129V128ZM86.8938 128H7.01075V129H86.8938V128ZM95.4043 119.489C95.4043 124.182 91.5861 128 86.8938 128V129C92.1384 129 96.4043 124.734 96.4043 119.489H95.4043ZM95.4043 24.149V119.489H96.4043V24.149H95.4043ZM86.8938 15.6383C91.5861 15.6383 95.4045 19.4566 95.4043 24.149L96.4043 24.149C96.4045 18.9044 92.1384 14.6383 86.8938 14.6383V15.6383ZM40.549 15.5212H31.9443V16.5212H40.549V15.5212ZM42.1664 14.6979C41.79 15.2152 41.1889 15.5212 40.549 15.5212V16.5212C41.5086 16.5212 42.4105 16.0623 42.9751 15.2861L42.1664 14.6979ZM42.4518 12.9054C42.6488 13.5143 42.5428 14.1805 42.1664 14.6979L42.9751 15.2861C43.5397 14.51 43.6987 13.5107 43.4032 12.5976L42.4518 12.9054ZM42.1598 11.0425C42.1598 11.679 42.2577 12.306 42.4518 12.9055L43.4032 12.5975C43.2418 12.099 43.1598 11.576 43.1598 11.0425H42.1598ZM48.2022 5C44.8699 5 42.1598 7.71011 42.1598 11.0425H43.1598C43.1598 8.26239 45.4221 6 48.2022 6V5ZM54.2448 11.0425C54.2448 7.71011 51.5346 5 48.2022 5V6C50.9824 6 53.2448 8.26239 53.2448 11.0425H54.2448ZM53.9527 12.9055C54.1468 12.306 54.2448 11.679 54.2448 11.0425H53.2448C53.2448 11.576 53.1627 12.099 53.0013 12.5975L53.9527 12.9055ZM54.2381 14.6979C53.8617 14.1805 53.7557 13.5143 53.9527 12.9054L53.0013 12.5976C52.7058 13.5107 52.8648 14.51 53.4294 15.2861L54.2381 14.6979ZM55.8555 15.5212C55.2156 15.5212 54.6145 15.2152 54.2381 14.6979L53.4294 15.2861C53.994 16.0623 54.8959 16.5212 55.8555 16.5212V15.5212ZM64.4603 15.5212H55.8555V16.5212H64.4603V15.5212ZM64.9603 26.1385V16.0212H63.9603V26.1385H64.9603ZM31.9443 26.6385H64.4603V25.6385H31.9443V26.6385ZM31.4443 16.0212V26.1385H32.4443V16.0212H31.4443ZM90.4045 119.489C90.4045 121.425 88.8291 123 86.894 123V124C89.3814 124 91.4045 121.977 91.4045 119.489H90.4045ZM90.9043 119.989H90.9045V118.989H90.9043V119.989ZM90.4043 24.149V119.489H91.4043V24.149H90.4043ZM86.8938 20.6383C88.8291 20.6383 90.4043 22.2136 90.4043 24.149H91.4043C91.4043 21.6614 89.3814 19.6383 86.8938 19.6383V20.6383ZM69.4603 20.6383H86.8938V19.6383H69.4603V20.6383ZM69.9603 26.1385V20.1383H68.9603V26.1385H69.9603ZM82.4043 25.6385H69.4603V26.6385H82.4043V25.6385ZM85.4043 28.6385C85.4043 26.9819 84.0612 25.6385 82.4043 25.6385V26.6385C83.5088 26.6385 84.4043 27.5341 84.4043 28.6385H85.4043ZM85.4043 62.1198V28.6385H84.4043V62.1198H85.4043ZM82.4043 65.1198C84.0611 65.1198 85.4043 63.7766 85.4043 62.1198H84.4043C84.4043 63.2244 83.5089 64.1198 82.4043 64.1198V65.1198ZM79.4043 62.1198C79.4043 63.7766 80.7474 65.1198 82.4043 65.1198V64.1198C81.2996 64.1198 80.4043 63.2244 80.4043 62.1198H79.4043ZM79.4043 31.1385V62.1198H80.4043V31.1385H79.4043ZM16.5 31.6385H79.9043V30.6385H16.5V31.6385ZM17 112.5V31.1385H16V112.5H17ZM79.9045 112H16.5V113H79.9045V112ZM79.4045 84.7228V112.5H80.4045V84.7228H79.4045ZM82.4045 81.7227C80.7476 81.7227 79.4045 83.0661 79.4045 84.7228H80.4045C80.4045 83.6184 81.2999 82.7227 82.4045 82.7227V81.7227ZM85.4045 84.7228C85.4045 83.0661 84.0614 81.7227 82.4045 81.7227V82.7227C83.5091 82.7227 84.4045 83.6184 84.4045 84.7228H85.4045ZM85.4045 115V84.7228H84.4045V115H85.4045ZM82.4045 118C84.0614 118 85.4045 116.657 85.4045 115H84.4045C84.4045 116.104 83.5091 117 82.4045 117V118ZM14.0002 118H82.4045V117H14.0002V118ZM11.0002 115C11.0002 116.657 12.3433 118 14.0002 118V117C12.8957 117 12.0002 116.104 12.0002 115H11.0002ZM11.0002 28.6385V115H12.0002V28.6385H11.0002ZM14.0002 25.6385C12.3433 25.6385 11.0002 26.9819 11.0002 28.6385H12.0002C12.0002 27.5341 12.8957 26.6385 14.0002 26.6385V25.6385ZM26.9443 25.6385H14.0002V26.6385H26.9443V25.6385ZM26.4443 20.1383V26.1385H27.4443V20.1383H26.4443ZM9.51075 20.6383H26.9443V19.6383H9.51075V20.6383ZM6 24.149C6 22.2136 7.57539 20.6383 9.51075 20.6383V19.6383C7.02311 19.6383 5 21.6614 5 24.149H6ZM6 119.489V24.149H5V119.489H6ZM6.37256 122.818C6.22544 122.505 6.12582 122.001 6.06828 121.379C6.01199 120.77 6 120.102 6 119.489H5C5 120.109 5.01189 120.815 5.07253 121.471C5.13193 122.113 5.24231 122.764 5.46744 123.243L6.37256 122.818ZM7.01075 123C6.59855 123 6.4649 122.945 6.43289 122.926C6.43264 122.926 6.43226 122.945 6.37264 122.818L5.46736 123.243C5.52599 123.368 5.63586 123.621 5.93386 123.793C6.2001 123.946 6.5527 124 7.01075 124V123ZM86.894 123H7.01075V124H86.894V123Z" fill="#007EF3"/>
<path d="M84.7123 72.51C84.2973 71.5132 83.259 70.879 82.1815 70.9762C81.1468 71.0695 80.2608 71.8187 79.9898 72.82C79.7223 73.809 80.1133 74.905 80.9493 75.4985C81.804 76.1052 82.9618 76.1145 83.826 75.5217C84.7885 74.8617 85.153 73.5845 84.7123 72.51Z" fill="#007EF3" stroke="#007EF3"/>
<path fill-rule="evenodd" clip-rule="evenodd" d="M69.3015 41.5675C66.3562 38.7963 62.592 37.207 58.9737 37.207C54.1585 37.207 50.327 39.6068 48.1695 41.3615C45.9542 39.6093 42.07 37.207 37.4305 37.207C32.961 37.207 28.3047 39.6495 25.2782 43.581C24.013 45.2248 23.1017 47.0263 22.5692 48.9365C22.548 49.0125 22.5275 49.0883 22.5082 49.1628C22.2572 50.1233 22.106 51.1055 22.0592 52.083C22.059 52.083 22.059 52.0833 22.059 52.0833C21.991 53.506 22.0735 54.8538 22.3115 56.2038C22.7122 58.477 23.536 60.6185 24.9047 62.944C26.816 66.1903 32.843 71.2388 39.9365 77.018L39.9385 77.0196C41.3797 78.194 42.7412 79.3034 43.7717 80.1763C45.0495 81.2588 46.6157 81.8 48.1827 81.8C49.7482 81.8 51.314 81.2593 52.5915 80.1783C53.632 79.2978 55.0087 78.1768 56.4665 76.9905C63.5677 71.2103 69.6005 66.1638 71.4985 62.946C72.368 61.4723 73.015 60.0715 73.4765 58.664C74.1715 56.5435 74.4557 54.3908 74.3455 52.0833C74.1585 48.1865 72.3672 44.4523 69.3015 41.5675ZM27.0532 52.322C27.0837 51.6905 27.182 51.0533 27.346 50.4255C27.359 50.3758 27.3725 50.3263 27.386 50.2778C27.745 48.99 28.369 47.763 29.2405 46.6303C31.309 43.943 34.5237 42.2068 37.4305 42.2068C41.0852 42.2068 44.3375 44.6443 45.566 45.692C47.0817 46.9848 49.3517 46.9648 50.8465 45.645C52.301 44.3608 55.2907 42.2065 58.9737 42.2065C63.5485 42.2065 69.078 46.625 69.3507 52.3215C69.4162 53.6875 69.2945 54.9728 68.9797 56.2248H64.2142L62.085 51.519C61.6827 50.6295 60.7995 50.0558 59.8237 50.0495C58.8505 50.0383 57.9572 50.6055 57.5432 51.4893L54.2982 58.4188L52.625 55.1368C52.187 54.2773 51.2872 53.7433 50.33 53.7733C49.3662 53.7993 48.503 54.3775 48.1122 55.2588L45.9 60.2483L42.0755 49.6473C41.7685 48.7968 41.0262 48.178 40.134 48.0295C39.2422 47.8795 38.3392 48.226 37.7735 48.9313L31.5385 56.7053H27.5565C27.4227 56.2495 27.3162 55.7945 27.2355 55.3355C27.063 54.3558 27.0035 53.37 27.0532 52.322ZM53.2796 73.1367L53.31 73.112C57.7555 69.4938 64.2662 64.1943 66.616 61.2255H62.6015C61.6195 61.2255 60.7285 60.6508 60.3237 59.756L59.7682 58.5283L56.6575 65.1705C56.2525 66.0353 55.39 66.5938 54.4352 66.61C53.491 66.63 52.6 66.0968 52.1662 65.2458L50.555 62.0855L47.9467 67.968C47.545 68.874 46.6472 69.4545 45.6617 69.4545C45.6443 69.4545 45.6269 69.4544 45.6095 69.454C45.5972 69.4538 45.5849 69.4534 45.5725 69.453C44.5522 69.4165 43.6562 68.7633 43.3097 67.8028L38.8847 55.5373L34.6882 60.7698C34.2137 61.3613 33.4965 61.7055 32.738 61.7055H30.1815C32.8042 64.7573 38.879 69.7068 43.0945 73.1413L43.1312 73.1712C44.5788 74.3508 45.9447 75.4638 47.0032 76.3608C47.6867 76.939 48.6782 76.939 49.3612 76.3613C50.4311 75.4558 51.8141 74.3298 53.2796 73.1367Z" fill="#007EF3"/>
<path d="M69.3015 41.5675L69.6441 41.2034L69.6441 41.2034L69.3015 41.5675ZM48.1695 41.3615L47.8593 41.7537L48.1739 42.0025L48.485 41.7494L48.1695 41.3615ZM25.2782 43.581L24.882 43.276L24.882 43.2761L25.2782 43.581ZM22.5692 48.9365L23.0508 49.0712L23.0509 49.0708L22.5692 48.9365ZM22.5082 49.1628L22.992 49.2892L22.9923 49.2879L22.5082 49.1628ZM22.0592 52.083V52.583H22.5359L22.5587 52.1069L22.0592 52.083ZM22.059 52.0833L22.5584 52.1072L22.559 52.0952L22.559 52.0833L22.059 52.0833ZM22.3115 56.2038L22.8039 56.117L22.8039 56.117L22.3115 56.2038ZM24.9047 62.944L24.4738 63.1977L24.4739 63.1977L24.9047 62.944ZM39.9365 77.018L40.2527 76.6307L40.2523 76.6304L39.9365 77.018ZM39.9385 77.0196L39.6223 77.407L39.6226 77.4072L39.9385 77.0196ZM43.7717 80.1763L44.0949 79.7948L44.0949 79.7947L43.7717 80.1763ZM52.5915 80.1783L52.9145 80.56L52.9145 80.56L52.5915 80.1783ZM56.4665 76.9905L56.7821 77.3783L56.7821 77.3783L56.4665 76.9905ZM71.4985 62.946L71.0679 62.692L71.0678 62.692L71.4985 62.946ZM73.4765 58.664L73.9516 58.8198L73.9516 58.8198L73.4765 58.664ZM74.3455 52.0833L74.8449 52.0594L74.8449 52.0593L74.3455 52.0833ZM27.346 50.4255L26.8622 50.2991L26.8622 50.2991L27.346 50.4255ZM27.0532 52.322L26.5538 52.2979L26.5538 52.2983L27.0532 52.322ZM27.386 50.2778L26.9044 50.1435L26.9043 50.1437L27.386 50.2778ZM29.2405 46.6303L28.8443 46.3253L28.8442 46.3254L29.2405 46.6303ZM45.566 45.692L45.8905 45.3116L45.8905 45.3116L45.566 45.692ZM50.8465 45.645L51.1774 46.0198L51.1774 46.0198L50.8465 45.645ZM69.3507 52.3215L68.8513 52.3454V52.3455L69.3507 52.3215ZM68.9797 56.2248V56.7248H69.3696L69.4647 56.3467L68.9797 56.2248ZM64.2142 56.2248L63.7587 56.4309L63.8917 56.7248H64.2142V56.2248ZM62.085 51.519L61.6294 51.7251L61.6295 51.7252L62.085 51.519ZM59.8237 50.0495L59.818 50.5495L59.8205 50.5495L59.8237 50.0495ZM57.5432 51.4893L57.0905 51.2772L57.0904 51.2772L57.5432 51.4893ZM54.2982 58.4188L53.8528 58.6459L54.3173 59.557L54.7511 58.6308L54.2982 58.4188ZM52.625 55.1368L52.1795 55.3638L52.1795 55.3639L52.625 55.1368ZM50.33 53.7733L50.3435 54.2731L50.3457 54.273L50.33 53.7733ZM48.1122 55.2588L47.6552 55.0561L47.6552 55.0561L48.1122 55.2588ZM45.9 60.2483L45.4297 60.418L45.8523 61.5894L46.3571 60.4509L45.9 60.2483ZM42.0755 49.6473L42.5458 49.4776L42.5458 49.4775L42.0755 49.6473ZM40.134 48.0295L40.0511 48.5226L40.0519 48.5227L40.134 48.0295ZM37.7735 48.9313L37.3835 48.6184L37.3834 48.6185L37.7735 48.9313ZM31.5385 56.7053V57.2053H31.7784L31.9285 57.0181L31.5385 56.7053ZM27.5565 56.7053L27.0767 56.8461L27.1821 57.2053H27.5565V56.7053ZM27.2355 55.3355L27.7279 55.2489L27.7279 55.2488L27.2355 55.3355ZM53.31 73.112L52.9944 72.7242L52.9943 72.7243L53.31 73.112ZM53.2796 73.1367L52.964 72.749L52.964 72.749L53.2796 73.1367ZM66.616 61.2255L67.0081 61.5358L67.6494 60.7255H66.616V61.2255ZM60.3237 59.756L60.7793 59.55L60.7793 59.5499L60.3237 59.756ZM59.7682 58.5283L60.2238 58.3222L59.7761 57.3326L59.3154 58.3162L59.7682 58.5283ZM56.6575 65.1705L57.1103 65.3826L57.1103 65.3826L56.6575 65.1705ZM54.4352 66.61L54.4267 66.1101L54.4247 66.1101L54.4352 66.61ZM52.1662 65.2458L52.6117 65.0187L52.6117 65.0187L52.1662 65.2458ZM50.555 62.0855L51.0004 61.8584L50.5235 60.923L50.0979 61.8829L50.555 62.0855ZM47.9467 67.968L48.4038 68.1707L48.4038 68.1707L47.9467 67.968ZM45.6095 69.454L45.5996 69.9539L45.5997 69.9539L45.6095 69.454ZM45.5725 69.453L45.5546 69.9527L45.5559 69.9528L45.5725 69.453ZM43.3097 67.8028L43.7801 67.6331L43.7801 67.6331L43.3097 67.8028ZM38.8847 55.5373L39.3551 55.3676L39.0525 54.5289L38.4947 55.2245L38.8847 55.5373ZM34.6882 60.7698L35.0783 61.0827L35.0783 61.0826L34.6882 60.7698ZM30.1815 61.7055V61.2055H29.0925L29.8023 62.0314L30.1815 61.7055ZM43.0945 73.1413L43.4103 72.7537L43.4103 72.7536L43.0945 73.1413ZM43.1312 73.1712L43.447 72.7836L43.447 72.7835L43.1312 73.1712ZM47.0032 76.3608L46.68 76.7423L46.6803 76.7425L47.0032 76.3608ZM49.3612 76.3613L49.6842 76.743L49.6843 76.7429L49.3612 76.3613ZM58.9737 37.707C62.4493 37.707 66.0945 39.2366 68.9589 41.9317L69.6441 41.2034C66.618 38.356 62.7347 36.707 58.9737 36.707V37.707ZM48.485 41.7494C50.6019 40.0277 54.3234 37.707 58.9737 37.707V36.707C53.9936 36.707 50.0521 39.1859 47.854 40.9736L48.485 41.7494ZM37.4305 37.707C41.9038 37.707 45.6783 40.0285 47.8593 41.7537L48.4797 40.9694C46.2302 39.19 42.2362 36.707 37.4305 36.707V37.707ZM25.6744 43.886C28.6182 40.062 33.1348 37.707 37.4305 37.707V36.707C32.7872 36.707 27.9912 39.2371 24.882 43.276L25.6744 43.886ZM23.0509 49.0708C23.5654 47.2252 24.4466 45.4812 25.6745 43.886L24.882 43.2761C23.5794 44.9683 22.6381 46.8273 22.0876 48.8023L23.0509 49.0708ZM22.9923 49.2879C23.0106 49.2171 23.0303 49.1446 23.0508 49.0712L22.0877 48.8019C22.0657 48.8805 22.0444 48.9595 22.0241 49.0377L22.9923 49.2879ZM22.5587 52.1069C22.6037 51.1647 22.7496 50.2168 22.992 49.2892L22.0245 49.0364C21.7649 50.0298 21.6083 51.0464 21.5598 52.0591L22.5587 52.1069ZM22.059 52.0833C22.559 52.0833 22.559 52.0835 22.559 52.0838C22.559 52.0838 22.559 52.0841 22.559 52.0843C22.559 52.0846 22.559 52.0849 22.559 52.0852C22.559 52.0859 22.559 52.0866 22.559 52.0872C22.559 52.0886 22.559 52.09 22.5589 52.0913C22.5589 52.0941 22.5588 52.097 22.5587 52.0999C22.5585 52.1058 22.5582 52.1122 22.5577 52.1189C22.5568 52.1322 22.5551 52.1479 22.5522 52.1655C22.5467 52.1982 22.5349 52.2495 22.5062 52.3069C22.4765 52.3662 22.4242 52.4406 22.3363 52.4992C22.2454 52.5598 22.1466 52.583 22.0592 52.583V51.583C21.9717 51.583 21.8729 51.6063 21.7819 51.667C21.694 51.7255 21.6416 51.8001 21.6119 51.8595C21.5831 51.9169 21.5713 51.9682 21.5658 52.001C21.5629 52.0186 21.5612 52.0343 21.5603 52.0476C21.5598 52.0544 21.5595 52.0607 21.5593 52.0666C21.5592 52.0696 21.5591 52.0724 21.5591 52.0752C21.559 52.0766 21.559 52.078 21.559 52.0793C21.559 52.08 21.559 52.0807 21.559 52.0813C21.559 52.0816 21.559 52.082 21.559 52.0823C21.559 52.0825 21.559 52.0827 21.559 52.0828C21.559 52.083 21.559 52.0833 22.059 52.0833ZM22.8039 56.117C22.5726 54.8049 22.4921 53.4943 22.5584 52.1072L21.5596 52.0594C21.4899 53.5177 21.5744 54.9026 21.8191 56.2906L22.8039 56.117ZM25.3356 62.6904C23.9922 60.4079 23.1927 58.3224 22.8039 56.117L21.8191 56.2906C22.2318 58.6317 23.0798 60.8292 24.4738 63.1977L25.3356 62.6904ZM40.2523 76.6304C36.7048 73.7402 33.4345 71.0411 30.8134 68.661C28.1795 66.2693 26.2484 64.2407 25.3356 62.6904L24.4739 63.1977C25.4723 64.8936 27.5103 67.0124 30.1412 69.4013C32.7847 71.8018 36.0747 74.5167 39.6207 77.4057L40.2523 76.6304ZM40.2546 76.6323L40.2527 76.6307L39.6203 77.4054L39.6223 77.407L40.2546 76.6323ZM44.0949 79.7947C43.0599 78.9181 41.6942 77.8053 40.2543 76.632L39.6226 77.4072C41.0653 78.5828 42.4225 79.6887 43.4486 80.5578L44.0949 79.7947ZM48.1827 81.3C46.7313 81.3 45.2803 80.799 44.0949 79.7948L43.4485 80.5578C44.8187 81.7186 46.5002 82.3 48.1827 82.3V81.3ZM52.2685 79.7966C51.0834 80.7994 49.6327 81.3 48.1827 81.3V82.3C49.8638 82.3 51.5446 81.7191 52.9145 80.56L52.2685 79.7966ZM56.1509 76.6027C54.6944 77.7879 53.3135 78.9123 52.2685 79.7966L52.9145 80.56C53.9505 79.6832 55.3231 78.5656 56.7821 77.3783L56.1509 76.6027ZM71.0678 62.692C70.1619 64.2279 68.2329 66.2488 65.5979 68.6369C62.976 71.0131 59.7023 73.712 56.1509 76.6028L56.7821 77.3783C60.332 74.4888 63.6252 71.7743 66.2695 69.3778C68.9007 66.9931 70.9371 64.8819 71.9292 63.2001L71.0678 62.692ZM73.0014 58.5082C72.5527 59.8767 71.9218 61.2446 71.0679 62.692L71.9291 63.2001C72.8142 61.7 73.4773 60.2664 73.9516 58.8198L73.0014 58.5082ZM73.8461 52.1071C73.9535 54.356 73.6767 56.4477 73.0014 58.5083L73.9516 58.8198C74.6663 56.6393 74.958 54.4256 74.8449 52.0594L73.8461 52.1071ZM68.9589 41.9317C71.9384 44.7353 73.6658 48.3507 73.8461 52.1072L74.8449 52.0593C74.6512 48.0223 72.7961 44.1692 69.6441 41.2034L68.9589 41.9317ZM26.8622 50.2991C26.6897 50.9596 26.586 51.6311 26.5538 52.2979L27.5527 52.3462C27.5815 51.75 27.6743 51.147 27.8298 50.5519L26.8622 50.2991ZM26.9043 50.1437C26.8904 50.1938 26.8761 50.246 26.8622 50.2991L27.8298 50.5519C27.8419 50.5055 27.8546 50.4587 27.8677 50.4119L26.9043 50.1437ZM28.8442 46.3254C27.9363 47.5054 27.2818 48.7897 26.9044 50.1435L27.8676 50.4121C28.2082 49.1903 28.8017 48.0206 29.6368 46.9352L28.8442 46.3254ZM37.4305 41.7068C34.3415 41.7068 30.9896 43.5382 28.8443 46.3253L29.6367 46.9353C31.6284 44.3479 34.7059 42.7068 37.4305 42.7068V41.7068ZM45.8905 45.3116C44.6514 44.2549 41.2784 41.7068 37.4305 41.7068V42.7068C40.8921 42.7068 44.0236 45.0337 45.2415 46.0725L45.8905 45.3116ZM50.5156 45.2702C49.2072 46.4254 47.2166 46.4426 45.8905 45.3116L45.2415 46.0725C46.9469 47.5269 49.4963 47.5042 51.1774 46.0198L50.5156 45.2702ZM58.9737 41.7065C55.1048 41.7065 51.998 43.9613 50.5156 45.2702L51.1774 46.0198C52.604 44.7603 55.4767 42.7065 58.9737 42.7065V41.7065ZM69.8502 52.2976C69.7062 49.2913 68.1775 46.6452 66.1128 44.7587C64.0529 42.8767 61.4113 41.7065 58.9737 41.7065V42.7065C61.1109 42.7065 63.5214 43.7456 65.4382 45.497C67.3501 47.2438 68.7225 49.6552 68.8513 52.3454L69.8502 52.2976ZM69.4647 56.3467C69.7921 55.0441 69.9179 53.7096 69.8502 52.2976L68.8513 52.3455C68.9146 53.6655 68.7969 54.9014 68.4948 56.1029L69.4647 56.3467ZM64.2142 56.7248H68.9797V55.7248H64.2142V56.7248ZM61.6295 51.7252L63.7587 56.4309L64.6698 56.0187L62.5405 51.3129L61.6295 51.7252ZM59.8205 50.5495C60.6011 50.5545 61.3076 51.0135 61.6294 51.7251L62.5406 51.313C62.0579 50.2456 60.9979 49.557 59.827 49.5495L59.8205 50.5495ZM57.996 51.7014C58.328 50.9928 59.0434 50.5405 59.818 50.5495L59.8295 49.5496C58.6576 49.536 57.5865 50.2182 57.0905 51.2772L57.996 51.7014ZM54.7511 58.6308L57.9961 51.7013L57.0904 51.2772L53.8454 58.2067L54.7511 58.6308ZM52.1795 55.3639L53.8528 58.6459L54.7437 58.1917L53.0704 54.9097L52.1795 55.3639ZM50.3457 54.273C51.1079 54.2491 51.8288 54.6755 52.1795 55.3638L53.0705 54.9098C52.5452 53.879 51.4666 53.2374 50.3143 53.2735L50.3457 54.273ZM48.5693 55.4615C48.8819 54.7565 49.5725 54.2939 50.3435 54.2731L50.3165 53.2735C49.16 53.3047 48.1241 53.9985 47.6552 55.0561L48.5693 55.4615ZM46.3571 60.4509L48.5693 55.4614L47.6552 55.0561L45.4429 60.0456L46.3571 60.4509ZM41.6052 49.817L45.4297 60.418L46.3703 60.0786L42.5458 49.4776L41.6052 49.817ZM40.0519 48.5227C40.7657 48.6415 41.3596 49.1366 41.6052 49.817L42.5458 49.4775C42.1774 48.457 41.2868 47.7145 40.2161 47.5363L40.0519 48.5227ZM38.1635 49.2442C38.6165 48.6794 39.3389 48.4028 40.0511 48.5226L40.2169 47.5365C39.1456 47.3562 38.062 47.7726 37.3835 48.6184L38.1635 49.2442ZM31.9285 57.0181L38.1635 49.2441L37.3834 48.6185L31.1484 56.3925L31.9285 57.0181ZM27.5565 57.2053H31.5385V56.2053H27.5565V57.2053ZM26.7431 55.4222C26.8271 55.8997 26.9378 56.3727 27.0767 56.8461L28.0363 56.5645C27.9077 56.1263 27.8054 55.6894 27.7279 55.2489L26.7431 55.4222ZM26.5538 52.2983C26.5024 53.3812 26.5638 54.4041 26.7431 55.4222L27.7279 55.2488C27.5622 54.3075 27.5046 53.3589 27.5527 52.3457L26.5538 52.2983ZM52.9943 72.7243L52.964 72.749L53.5953 73.5245L53.6256 73.4998L52.9943 72.7243ZM66.2239 60.9152C65.082 62.358 62.9011 64.3969 60.4213 66.5475C57.9511 68.6897 55.2182 70.9143 52.9944 72.7242L53.6256 73.4998C55.8473 71.6915 58.5925 69.4572 61.0765 67.303C63.5509 65.1571 65.8002 63.0619 67.0081 61.5358L66.2239 60.9152ZM62.6015 61.7255H66.616V60.7255H62.6015V61.7255ZM59.8682 59.9621C60.3539 61.0358 61.4231 61.7255 62.6015 61.7255V60.7255C61.8159 60.7255 61.1031 60.2657 60.7793 59.55L59.8682 59.9621ZM59.3127 58.7344L59.8682 59.9621L60.7793 59.5499L60.2238 58.3222L59.3127 58.7344ZM57.1103 65.3826L60.2211 58.7403L59.3154 58.3162L56.2047 64.9585L57.1103 65.3826ZM54.4438 67.11C55.5893 67.0905 56.6243 66.4204 57.1103 65.3826L56.2047 64.9585C55.8807 65.6502 55.1907 66.0971 54.4267 66.1101L54.4438 67.11ZM51.7208 65.4728C52.241 66.4936 53.3085 67.134 54.4458 67.1099L54.4247 66.1101C53.6735 66.1261 52.959 65.7 52.6117 65.0187L51.7208 65.4728ZM50.1096 62.3126L51.7208 65.4729L52.6117 65.0187L51.0004 61.8584L50.1096 62.3126ZM48.4038 68.1707L51.0121 62.2882L50.0979 61.8829L47.4897 67.7654L48.4038 68.1707ZM45.6617 69.9545C46.8444 69.9545 47.9217 69.258 48.4038 68.1707L47.4897 67.7653C47.1683 68.49 46.4501 68.9545 45.6617 68.9545V69.9545ZM45.5997 69.9539C45.6204 69.9543 45.641 69.9545 45.6617 69.9545V68.9545C45.6476 68.9545 45.6335 68.9544 45.6194 68.9541L45.5997 69.9539ZM45.5559 69.9528C45.5705 69.9532 45.585 69.9536 45.5996 69.9539L45.6194 68.9541C45.6094 68.9539 45.5993 68.9536 45.5891 68.9533L45.5559 69.9528ZM42.8394 67.9725C43.2552 69.1251 44.3304 69.9089 45.5546 69.9527L45.5904 68.9534C44.7741 68.9241 44.0573 68.4015 43.7801 67.6331L42.8394 67.9725ZM38.4144 55.707L42.8394 67.9725L43.7801 67.6331L39.3551 55.3676L38.4144 55.707ZM35.0783 61.0826L39.2748 55.8501L38.4947 55.2245L34.2982 60.457L35.0783 61.0826ZM32.738 62.2055C33.6482 62.2055 34.5089 61.7924 35.0783 61.0827L34.2982 60.4569C33.9186 60.9301 33.3448 61.2055 32.738 61.2055V62.2055ZM30.1815 62.2055H32.738V61.2055H30.1815V62.2055ZM43.4103 72.7536C39.1758 69.3037 33.1468 64.3888 30.5607 61.3796L29.8023 62.0314C32.4617 65.1258 38.5822 70.1099 42.7787 73.5289L43.4103 72.7536ZM43.447 72.7835L43.4103 72.7537L42.7787 73.5289L42.8153 73.5588L43.447 72.7835ZM47.3265 75.9793C46.2634 75.0786 44.8934 73.9622 43.447 72.7836L42.8153 73.5588C44.2643 74.7395 45.6259 75.8491 46.68 76.7423L47.3265 75.9793ZM49.0383 75.9795C48.5418 76.3995 47.8234 76.3997 47.3262 75.9791L46.6803 76.7425C47.5501 77.4784 48.8147 77.4785 49.6842 76.743L49.0383 75.9795ZM52.964 72.749C51.4998 73.941 50.1125 75.0704 49.0382 75.9796L49.6843 76.7429C50.7497 75.8412 52.1285 74.7187 53.5953 73.5245L52.964 72.749Z" fill="#007EF3"/>
<path d="M70.2493 88.5585H26.1555C24.7748 88.5585 23.6555 89.678 23.6555 91.0585C23.6555 92.439 24.7748 93.5585 26.1555 93.5585H70.2493C71.63 93.5585 72.7493 92.439 72.7493 91.0585C72.7493 89.678 71.6298 88.5585 70.2493 88.5585Z" fill="#007EF3" stroke="#007EF3"/>
<path d="M70.2493 98.5585H26.1555C24.7748 98.5585 23.6555 99.678 23.6555 101.058C23.6555 102.439 24.7748 103.558 26.1555 103.558H70.2493C71.63 103.558 72.7493 102.439 72.7493 101.058C72.7493 99.678 71.6298 98.5585 70.2493 98.5585Z" fill="#007EF3" stroke="#007EF3"/>
</svg>
