<svg width="232" height="222" viewBox="0 0 232 222" fill="none" xmlns="http://www.w3.org/2000/svg">
<mask id="mask0_0_189" style="mask-type:luminance" maskUnits="userSpaceOnUse" x="0" y="-10" width="232" height="232">
<rect y="-10" width="232" height="232" rx="116" fill="white"/>
</mask>
<g mask="url(#mask0_0_189)">
<path fill-rule="evenodd" clip-rule="evenodd" d="M161.63 207.368C161.63 207.368 172.631 288.612 176.532 297.363C180.432 306.115 218.184 384.771 218.184 384.771L190.9 404.34C190.9 404.34 130.157 312.762 127.404 307.856C125.625 304.716 120.885 286.018 120.885 286.018L74.1051 413.398L43.1049 399.232L75.6506 210.642L161.63 207.368Z" fill="#AADAF1"/>
<path fill-rule="evenodd" clip-rule="evenodd" d="M128.679 208.631L104.32 209.557L104.498 215.432L128.679 208.631ZM104.934 230.886L107.724 321.845L120.878 286.122L104.934 230.886Z" fill="#73A9C3"/>
<path d="M120.909 286.122L102.64 222.442" stroke="#0097F7" stroke-width="1.04254" stroke-linecap="round" stroke-linejoin="round"/>
<path fill-rule="evenodd" clip-rule="evenodd" d="M182.885 149.022C182.805 144.294 183.823 135.868 181.714 130.802C179.604 125.737 165.677 127.92 165.677 127.92C165.677 127.92 182.959 153.726 182.885 149.022Z" fill="#F77F89"/>
<path fill-rule="evenodd" clip-rule="evenodd" d="M125.459 67.5506C157.116 67.5506 182.946 83.5873 183.198 107.891C183.351 123.143 186.16 134.114 186.16 134.114L158.091 141.093C158.091 141.093 167.842 208.042 164.42 210.857C154.24 219.246 82.8196 222.055 73.958 212.924C73.1791 201.628 80.0476 171.529 80.0476 171.529C80.0476 171.529 58.2524 120.15 70.0638 95.9199C81.2557 72.9534 110.68 68.8261 123.724 68.3785C124.441 68.3539 124.846 67.5506 125.459 67.5506Z" fill="#FF9F6B"/>
<path fill-rule="evenodd" clip-rule="evenodd" d="M144.219 25.7569C144.403 14.9083 133.322 0 117.364 0C104.86 0 92.0859 5.94862 91.7609 15.6259C91.1109 11.6274 90.4915 9.15597 90.9453 6.94823C88.2469 6.81331 82.8196 13.7738 82.8196 23.0708C82.8196 26.6645 85.6222 40.2421 93.5946 40.0765C101.567 39.9109 131.991 50.8024 131.991 50.8024C131.991 50.8024 133.99 53.7277 136.688 53.5069C139.387 53.2861 144.495 48.2267 144.538 45.4364C144.581 42.6461 142.054 37.6296 142.085 36.0781C142.116 34.5265 144.029 36.5871 144.219 25.7569Z" fill="#6A3416"/>
<path d="M106.062 99.1273L100.438 119.586" stroke="black" stroke-width="2.09122" stroke-linecap="round" stroke-linejoin="round"/>
<path fill-rule="evenodd" clip-rule="evenodd" d="M90.1664 39.684C90.1639 30.0838 95.9454 21.4275 104.814 17.7525C113.683 14.0775 123.893 16.1076 130.681 22.896C137.47 29.6845 139.5 39.894 135.825 48.763C132.15 57.632 123.494 63.4135 113.893 63.4111C100.789 63.4111 90.1664 52.7881 90.1664 39.684Z" fill="#F77F89"/>
<path fill-rule="evenodd" clip-rule="evenodd" d="M89.0258 30.663C89.0258 30.663 92.2147 30.0497 96.9061 23.1076C102.757 24.2115 112.385 24.1624 120.59 21.6849C120.694 26.6339 124.325 34.735 129.323 33.8397C134.321 32.9443 136.369 20.8999 136.369 20.8999L124.589 8.58563L106.773 8.70215L94.2323 17.5392L89.0258 30.663Z" fill="#6A3416"/>
<path fill-rule="evenodd" clip-rule="evenodd" d="M96.1089 36.863C95.8881 34.9681 96.483 33.3491 97.4335 33.2387C98.3841 33.1283 99.3408 34.5694 99.5615 36.4583C99.7823 38.3471 99.1875 39.9723 98.2308 40.0826C97.2741 40.193 96.3481 38.7519 96.1089 36.863Z" fill="#90415B"/>
<path fill-rule="evenodd" clip-rule="evenodd" d="M137.853 44.6208C137.24 48.3923 136.014 66.3302 137.958 70.1446C133.622 74.5111 120.909 76.3938 114.249 74.4988C114.77 69.3229 112.624 64.2635 111.477 62.1968C110.33 60.1301 138.448 40.8431 137.853 44.6208Z" fill="#F77F89"/>
<path fill-rule="evenodd" clip-rule="evenodd" d="M111.956 33.9501C111.735 32.0612 112.33 30.4422 113.28 30.3257C114.231 30.2092 115.187 31.6565 115.402 33.5514C115.617 35.4464 115.034 37.0654 114.077 37.1758C113.121 37.2862 112.176 35.845 111.956 33.9501Z" fill="#90415B"/>
<path d="M104.057 37.4947C104.247 39.727 102.456 48.1654 102.076 49.4717C101.696 50.7779 103.738 51.2624 103.738 51.2624" stroke="#90415B" stroke-width="1.04254" stroke-linecap="round" stroke-linejoin="round"/>
<path fill-rule="evenodd" clip-rule="evenodd" d="M91.3561 47.1229C91.4788 49.4962 97.084 61.7369 100.389 63.6196C103.695 65.5023 128.599 65.257 134.321 52.9304C129.624 52.2007 126.441 48.2145 122.724 39.684C114.421 40.9106 105.007 39.684 103.493 39.7638C101.831 39.8619 97.8322 45.3812 91.3561 47.1229Z" fill="white"/>
<path fill-rule="evenodd" clip-rule="evenodd" d="M141.073 92.3324C154.099 92.0809 179.929 90.4926 182.523 101.531C185.117 112.57 187.583 131.501 186.16 134.095C184.737 136.689 158.214 139.977 158.214 139.977C156.116 134.666 144.538 104.72 141.073 92.3324Z" fill="#FF9F6B"/>
<path fill-rule="evenodd" clip-rule="evenodd" d="M168.872 165.513C161.697 166.678 119.351 137.174 114.102 137.75C108.852 138.327 95.3792 137.812 95.3792 137.812C95.3792 137.812 87.7134 108.43 104.069 107.345C105.081 107.278 111.072 112.607 111.072 112.607C111.072 112.607 112.734 112.079 113.893 113.03C116.009 114.759 122.89 122.578 126.33 123.817C132.12 125.908 179.101 134.794 181.352 138.535C183.603 142.276 186.086 162.722 168.872 165.513Z" fill="#F77F89"/>
<path fill-rule="evenodd" clip-rule="evenodd" d="M56.3635 120.199H89.2036C92.9935 120.199 97.2986 123.008 98.8256 126.479L121.939 178.98C123.466 182.445 121.633 185.253 117.843 185.253H85.0089C81.219 185.253 76.9077 182.445 75.3807 178.98L52.2731 126.473C50.7461 123.001 52.5797 120.199 56.3635 120.199Z" fill="#007EF3"/>
<path fill-rule="evenodd" clip-rule="evenodd" d="M55.5602 162.857C53.9964 158.822 52.8802 153.247 55.0757 149.678C57.2712 146.109 65.7219 135.119 69.2236 134.917C72.7253 134.715 81.7157 144.459 82.6785 147.618C83.6413 150.776 83.2918 157.638 81.7832 160.594C80.2745 163.55 74.2217 169.29 71.1738 169.407C68.1259 169.523 56.4862 165.323 55.5602 162.857Z" fill="#F77F89"/>
<path fill-rule="evenodd" clip-rule="evenodd" d="M54.6955 154.793C54.2723 148.28 51.433 141.228 49.5073 136.444C48.2195 133.261 49.17 130.532 51.3471 129.913C53.5242 129.294 60.2762 138.198 60.4724 145.085C60.6686 151.972 55.1248 161.287 54.6955 154.793Z" fill="#F77F89"/>
<path d="M54.2907 151.475C55.8518 148.027 57.9347 144.839 60.4662 142.025" stroke="#81666F" stroke-width="1.04254" stroke-linecap="round" stroke-linejoin="round"/>
<path d="M62.999 152.53C62.999 149.028 70.1374 138.817 72.8112 137.566" stroke="#905F6F" stroke-width="1.04254" stroke-linecap="round" stroke-linejoin="round"/>
<path d="M70.0085 156.651C70.0883 154.952 75.6444 145.698 78.8272 143.858" stroke="#8B5D6C" stroke-width="1.04254" stroke-linecap="round" stroke-linejoin="round"/>
<path d="M83.0587 102.329C82.4454 105.922 81.869 113.606 83.3531 120.18" stroke="white" stroke-width="1.04254" stroke-linecap="round" stroke-linejoin="round"/>
<path d="M124.368 117.255L145.065 117.672" stroke="white" stroke-width="1.04254" stroke-linecap="round" stroke-linejoin="round"/>
<path fill-rule="evenodd" clip-rule="evenodd" d="M112.71 69.4333C112.409 72.4628 108.816 92.0503 120.909 92.0503C128.691 92.0503 140.773 73.9468 138.859 68.5502" fill="#F77F89"/>
<path d="M112.71 69.4333C112.409 72.4628 108.816 92.0503 120.909 92.0503C128.691 92.0503 140.773 73.9468 138.859 68.5502" stroke="white" stroke-width="1.04254" stroke-linecap="round" stroke-linejoin="round"/>
<path fill-rule="evenodd" clip-rule="evenodd" d="M126.33 37.0102C126.328 33.3535 128.529 30.0555 131.906 28.6545C135.284 27.2534 139.173 28.0253 141.759 30.6101C144.346 33.1948 145.12 37.0833 143.722 40.4619C142.323 43.8405 139.026 46.0435 135.37 46.0435C130.38 46.0435 126.334 42.0002 126.33 37.0102Z" fill="#F77F89"/>
<path d="M122.816 39.8619C122.816 39.8619 128.526 29.4365 134.573 28.0076" stroke="white" stroke-width="1.04254" stroke-linecap="round" stroke-linejoin="round"/>
<path d="M134.284 53.004L138.712 45.3812" stroke="white" stroke-width="1.04254" stroke-linecap="round" stroke-linejoin="round"/>
<path d="M154.608 130.698C151.143 121.616 146.169 108.283 143.029 98.7287" stroke="white" stroke-width="1.04254" stroke-linecap="round" stroke-linejoin="round"/>
<path d="M92.0552 49.6311C93.6742 54.0527 97.7647 62.1232 100.396 63.6196C101.444 64.2328 104.688 64.6008 108.822 64.4475" stroke="#C9C9C9" stroke-width="2.09122" stroke-linecap="round" stroke-linejoin="round"/>
</g>
</svg>
